<?xml version="1.0" encoding="UTF-8" standalone="no"?>
<svg
   version="1.0"
   width="1280.000000pt"
   height="1280.000000pt"
   viewBox="0 0 1280.000000 1280.000000"
   preserveAspectRatio="xMidYMid meet"
   id="svg52"
   sodipodi:docname="com.progweb.gpx2video.svg"
   inkscape:version="1.2.2 (b0a8486541, 2022-12-01)"
   xmlns:inkscape="http://www.inkscape.org/namespaces/inkscape"
   xmlns:sodipodi="http://sodipodi.sourceforge.net/DTD/sodipodi-0.dtd"
   xmlns:xlink="http://www.w3.org/1999/xlink"
   xmlns="http://www.w3.org/2000/svg"
   xmlns:svg="http://www.w3.org/2000/svg">
  <defs
     id="defs56">
    <linearGradient
       inkscape:collect="always"
       id="linearGradient44001">
      <stop
         style="stop-color:#d7d7d7;stop-opacity:1;"
         offset="0"
         id="stop43997" />
      <stop
         style="stop-color:#4d4d4d;stop-opacity:1;"
         offset="0.14902157"
         id="stop51991" />
      <stop
         style="stop-color:#000000;stop-opacity:1;"
         offset="1"
         id="stop43999" />
    </linearGradient>
    <linearGradient
       inkscape:collect="always"
       id="linearGradient24991">
      <stop
         style="stop-color:#ffffff;stop-opacity:1;"
         offset="0"
         id="stop24987" />
      <stop
         style="stop-color:#4d4d4d;stop-opacity:1;"
         offset="0.63878965"
         id="stop30927" />
      <stop
         style="stop-color:#000000;stop-opacity:1"
         offset="1"
         id="stop24989" />
    </linearGradient>
    <inkscape:path-effect
       effect="skeletal"
       id="path-effect20847"
       is_visible="true"
       lpeversion="1"
       pattern="m 311.14365,429.80459 v 25.00049 h 2.25 v -25.00049 z m 6.21387,0 v 20.00098 h 1.3418 v -20.00098 z m 5.30566,0 v 20.00098 h 1.3418 v -20.00098 z m 5.3042,0 v 20.00098 h 1.3418 v -20.00098 z m 5.30713,0 v 20.00098 h 1.3418 v -20.00098 z m 5.3042,0 v 25.00049 h 2.25 v -25.00049 z"
       copytype="repeated_stretched"
       prop_scale="0.75"
       scale_y_rel="false"
       spacing="0"
       normal_offset="0"
       tang_offset="0"
       prop_units="false"
       vertical_pattern="false"
       hide_knot="false"
       fuse_tolerance="0" />
    <linearGradient
       inkscape:collect="always"
       id="linearGradient2437">
      <stop
         style="stop-color:#d1a661;stop-opacity:1;"
         offset="0"
         id="stop2433" />
      <stop
         style="stop-color:#000000;stop-opacity:0.79918534;"
         offset="1"
         id="stop2435" />
    </linearGradient>
    <linearGradient
       inkscape:collect="always"
       xlink:href="#linearGradient2437"
       id="linearGradient2439"
       x1="354.4614"
       y1="867.96216"
       x2="1277.0341"
       y2="1.3974178"
       gradientUnits="userSpaceOnUse" />
    <radialGradient
       inkscape:collect="always"
       xlink:href="#linearGradient24991"
       id="radialGradient24993"
       cx="628.79987"
       cy="634.69659"
       fx="628.79987"
       fy="634.69659"
       r="57.417939"
       gradientUnits="userSpaceOnUse"
       gradientTransform="matrix(1.0562979,0,0,1.0562979,-35.400083,-35.732056)" />
    <radialGradient
       inkscape:collect="always"
       xlink:href="#linearGradient44001"
       id="radialGradient44003"
       cx="628.79987"
       cy="634.69659"
       fx="628.79987"
       fy="634.69659"
       r="328.19632"
       gradientUnits="userSpaceOnUse" />
    <filter
       inkscape:collect="always"
       style="color-interpolation-filters:sRGB"
       id="filter64559"
       x="-0.058136383"
       y="-0.077234094"
       width="1.1190227"
       height="1.1572313">
      <feGaussianBlur
         inkscape:collect="always"
         stdDeviation="5.7329658"
         id="feGaussianBlur64561" />
    </filter>
    <filter
       style="color-interpolation-filters:sRGB;"
       inkscape:label="Drop Shadow"
       id="filter65302"
       x="-0.32567145"
       y="-0.32567145"
       width="1.7513733"
       height="1.7513733">
      <feFlood
         flood-opacity="0.356863"
         flood-color="rgb(0,0,0)"
         result="flood"
         id="feFlood65292" />
      <feComposite
         in="flood"
         in2="SourceGraphic"
         operator="in"
         result="composite1"
         id="feComposite65294" />
      <feGaussianBlur
         in="composite1"
         stdDeviation="4"
         result="blur"
         id="feGaussianBlur65296" />
      <feOffset
         dx="4"
         dy="4"
         result="offset"
         id="feOffset65298" />
      <feComposite
         in="SourceGraphic"
         in2="offset"
         operator="over"
         result="fbSourceGraphic"
         id="feComposite65300" />
      <feColorMatrix
         result="fbSourceGraphicAlpha"
         in="fbSourceGraphic"
         values="0 0 0 -1 0 0 0 0 -1 0 0 0 0 -1 0 0 0 0 1 0"
         id="feColorMatrix65304" />
      <feFlood
         id="feFlood65306"
         flood-opacity="0.356863"
         flood-color="rgb(0,0,0)"
         result="flood"
         in="fbSourceGraphic" />
      <feComposite
         in2="fbSourceGraphic"
         id="feComposite65308"
         in="flood"
         operator="in"
         result="composite1" />
      <feGaussianBlur
         id="feGaussianBlur65310"
         in="composite1"
         stdDeviation="6"
         result="blur" />
      <feOffset
         id="feOffset65312"
         dx="4"
         dy="4"
         result="offset" />
      <feComposite
         in2="offset"
         id="feComposite65314"
         in="fbSourceGraphic"
         operator="over"
         result="fbSourceGraphic" />
      <feColorMatrix
         result="fbSourceGraphicAlpha"
         in="fbSourceGraphic"
         values="0 0 0 -1 0 0 0 0 -1 0 0 0 0 -1 0 0 0 0 1 0"
         id="feColorMatrix65316" />
      <feFlood
         id="feFlood65318"
         flood-opacity="0.356863"
         flood-color="rgb(0,0,0)"
         result="flood"
         in="fbSourceGraphic" />
      <feComposite
         in2="fbSourceGraphic"
         id="feComposite65320"
         in="flood"
         operator="in"
         result="composite1" />
      <feGaussianBlur
         id="feGaussianBlur65322"
         in="composite1"
         stdDeviation="6"
         result="blur" />
      <feOffset
         id="feOffset65324"
         dx="4"
         dy="4"
         result="offset" />
      <feComposite
         in2="offset"
         id="feComposite65326"
         in="fbSourceGraphic"
         operator="over"
         result="composite2" />
    </filter>
  </defs>
  <sodipodi:namedview
     id="namedview54"
     pagecolor="#505050"
     bordercolor="#ffffff"
     borderopacity="1"
     inkscape:showpageshadow="0"
     inkscape:pageopacity="0"
     inkscape:pagecheckerboard="1"
     inkscape:deskcolor="#505050"
     inkscape:document-units="pt"
     showgrid="false"
     inkscape:zoom="0.22685058"
     inkscape:cx="171.91933"
     inkscape:cy="749.39195"
     inkscape:window-width="1920"
     inkscape:window-height="1003"
     inkscape:window-x="0"
     inkscape:window-y="0"
     inkscape:window-maximized="1"
     inkscape:current-layer="layer1">
    <inkscape:grid
       type="xygrid"
       id="grid9701" />
  </sodipodi:namedview>
  <metadata
     id="metadata46">
Created by potrace 1.15, written by Peter Selinger 2001-2017
</metadata>
  <path
     id="path48"
     style="display:inline;mix-blend-mode:normal;fill:url(#linearGradient2439);fill-opacity:1;stroke:none;stroke-width:1;stroke-dasharray:none"
     d="m 88.986328,25.501465 c -35.170029,0 -63.483398,28.313369 -63.483398,63.483398 V 1192.7622 c 0,31.3845 22.567988,57.2481 52.413574,62.4653 44.044386,0.6192 185.370556,0.772 573.083496,0.772 h 546.4028 c 32.8534,-2.4955 58.5806,-29.7233 58.5806,-63.2373 V 618.6167 c -0.011,-342.80749 -0.1481,-492.73037 -0.7031,-538.618653 -4.3508,-30.871536 -30.6724,-54.496582 -62.7818,-54.496582 z M 601.80029,109.61279 c 0.075,-0.0875 0.3002,0.0878 0.7002,0.4878 2.3,2.29999 3.09931,16.20013 2.79931,49.10009 -0.3,33.19997 -0.3001,33.89884 -2.60009,37.79883 -1.3,2.2 -3.9004,5.20098 -5.90039,6.50098 l -3.69873,2.49902 h -31.5 c -23.09998,0 -32.10059,-0.29971 -33.60059,-1.19971 -1.2,-0.79999 -1.50059,-1.29931 -0.60059,-1.29931 1.1,0 1.1,-0.30069 0,-1.70069 -1.89999,-2.19999 -2.59902,-53.7004 -0.99902,-64.40039 2.7,-16.89998 11.59963,-24.9 30.09961,-27 8.39999,-0.99999 38.49981,-0.29951 42.7998,1.00049 3,0.9 3.29971,0.79981 2.69971,-0.70019 -0.2,-0.65 -0.27422,-0.99942 -0.19922,-1.08692 z m -306.9375,0.0615 c 0.1125,0.025 0.43711,0.42607 1.03711,1.22607 2.4,3 2.69942,10.20014 2.39942,47.6001 -0.3,34.99996 -0.29864,35.49922 -2.59864,39.19922 -1.3,2 -4,4.7 -6,6 -3.69999,2.29999 -4.10022,2.2998 -35.20019,2.2998 -28.49997,0 -31.8,-0.19883 -34.5,-1.79883 -2.2,-1.3 -2.3998,-1.60117 -0.79981,-1.20117 2.1,0.6 2.19903,0.50029 0.99903,-2.69971 -0.8,-2.29999 -1.19971,-12.20031 -1.19971,-33.30029 0,-33.29996 0.49952,-37.09923 6.49951,-45.19922 4.2,-5.69999 13.40021,-10.1998 23.2002,-11.2998 8.99999,-1.1 39.09961,-0.40059 43.59961,0.89941 2.99999,0.9 3.30078,0.79981 2.80078,-0.70019 -0.25,-0.7 -0.34981,-1.05039 -0.23731,-1.02539 z m -187.9541,0.30468 c 12.81561,-0.22968 31.11563,0.3709 33.89063,1.4209 1.99999,0.8 2.70078,0.70078 2.80078,-0.19922 0,-0.6 0.70039,0.0988 1.40039,1.79883 1.1,2.4 1.4,11.00101 1.5,41.00098 0,37.59996 -2e-4,38.09951 -2.2002,42.49951 -2.69999,5.19999 -6.00088,7.8 -11.40088,9 -5.49999,1.3 -54.199221,1.20039 -60.199215,-0.0996 -2.799997,-0.5 -5.799805,-1.70049 -6.799804,-2.50049 -1.799999,-1.4 -1.799705,-1.39951 0.300293,-0.49951 3.099996,1.6 3.099607,1.60029 1.599609,-4.19971 -1.099999,-3.99999 -1.300097,-11.60021 -1.100098,-33.70019 0.4,-27.09997 0.49971,-28.8004 2.699707,-34.40039 4.599996,-11.69999 13.200307,-17.79961 27.300293,-19.59961 2.274998,-0.275 5.936625,-0.44492 10.208495,-0.52149 z m 306.8584,0 c 12.8578,-0.22968 31.15811,0.3709 33.93311,1.4209 1.99999,0.7 2.7996,0.70078 3.0996,-0.19922 0.2,-0.7 0.89961,0.59932 1.59961,2.79932 0.7,2.7 1.1001,16.39993 1.1001,40.8999 0,35.59997 -0.0991,37.09942 -2.09912,41.39942 -1.3,2.59999 -3.80069,5.40049 -6.20068,7.00048 l -4.1001,2.69971 h -30.99902 c -27.49998,0 -31.50108,-0.19922 -34.60108,-1.69922 -1.9,-1 -2.4997,-1.4997 -1.19971,-1.1997 2.1,0.5 2.10049,0.39872 1.00049,-2.30127 -1.9,-4.6 -2.30097,-52.79992 -0.50097,-63.39991 2.89999,-16.69998 11.4007,-24.69892 28.70068,-26.89892 2.3,-0.275 5.98116,-0.44492 10.26709,-0.52149 z m 303.64014,0 c 12.58592,-0.22968 30.41748,0.3709 33.79248,1.4209 2.69999,0.8 3.0997,0.69981 2.6997,-0.70019 -0.2,-1 0.20049,-0.39922 1.00049,1.30078 2.2,4.39999 2.29961,80.1999 0.0996,84.3999 -2.1,4.1 -6.89971,7.89961 -11.69971,9.09961 -4.49999,1.3 -60.19931,0.99971 -62.79931,-0.30029 -2.3,-1.1 -2.50049,-4.49974 -2.50049,-38.69971 0,-35.69996 0.40001,-38.19932 7.5,-46.29932 4.9,-5.49999 11.59981,-8.50019 21.7998,-9.70019 2.3,-0.275 5.91212,-0.44492 10.10743,-0.52149 z m 303.41597,0 c 12.8391,-0.22968 31.1775,0.3709 33.8775,1.4209 2,0.7 2.7996,0.70078 3.0996,-0.19922 0.2,-0.7 0.8996,0.59932 1.5996,2.79932 0.7,2.7 1.1001,16.39954 1.1001,40.99951 0,42.29996 -0.1006,42.90069 -8.1006,48.20069 l -4.2993,2.79931 h -31.0005 c -27.49996,0 -31.4996,-0.19922 -34.5996,-1.69922 -1.9,-1 -2.49932,-1.4997 -1.29932,-1.1997 2.1,0.5 2.19903,0.39921 0.99903,-2.80079 -0.8,-2.29999 -1.19971,-12.09933 -1.19971,-32.79931 0,-27.69997 0.1002,-29.90098 2.2002,-36.50098 3.89999,-12.19999 12.49991,-18.59902 27.3999,-20.49902 2.275,-0.275 5.9435,-0.44492 10.2231,-0.52149 z m 162.8013,0.1084 c 8.225,0.0875 18.0258,0.36299 27.1758,0.81299 2.2,0.1 2.9002,0.69912 3.7002,3.59912 0.6,2 0.999,19.60002 0.999,40.5 0,36.49997 -2e-4,37.10049 -2.2002,41.50049 -2.7,5.19999 -5.9994,7.8 -11.3994,9 -2.1,0.5 -15.5001,1.00049 -29.6001,1.00049 -24.3,0 -35.0003,-0.90108 -36.3003,-3.10108 -0.4,-0.5 0.1005,-0.59882 1.0005,-0.29882 1.3,0.5 1.4003,0.1998 0.3003,-2.2002 -1.5,-3.7 -2.1002,-54.60079 -0.7002,-62.80078 2.8,-16.79998 12.1998,-25.7002 29.2998,-27.7002 2.85,-0.3 9.4996,-0.39951 17.7246,-0.31201 z m -304.9497,0.0498 c 8.825,0.1125 18.47511,0.41279 24.7251,0.86279 2.6,0.1 3.70078,0.80049 4.30078,2.50049 0.5,1.3 0.69912,20.20002 0.59912,42 l -0.30029,39.70019 -2.79931,3.59912 c -5.4,7 -6.00052,7.2 -37.00049,7.5 -26.79998,0.3 -37.79922,-0.50039 -39.19922,-2.90039 -0.3,-0.5 0.0994,-0.59882 0.89941,-0.29882 1.3,0.5 1.39951,0.0992 0.49951,-2.80079 -1.49999,-4.99999 -2.20009,-42.7003 -1.10009,-55.80029 1.1,-13.39998 3.4,-19.89932 9,-25.29931 4.89999,-4.8 11.9001,-7.70079 20.60009,-8.80079 2.95,-0.3 10.9504,-0.3747 19.77539,-0.2622 z M 295.40039,1075.8999 c 0.5,0.3 1.39951,2.5995 1.99951,4.9995 0.7,2.9 1.1001,17.2003 1.1001,40.8003 0,33.1 -0.1999,36.7008 -1.8999,40.3008 -2.2,4.8 -4.39991,6.9 -9.3999,9 -3,1.2 -8.80052,1.5 -32.50049,1.5 -27.79998,0 -33.8002,-0.5007 -36.7002,-3.2007 -0.6,-0.6 -0.2998,-0.7003 0.7002,-0.3003 1.6,0.6 1.70048,0.1999 1.00049,-4.1001 -0.4,-2.7 -0.7002,-17.4989 -0.7002,-32.8989 0,-30.2 0.59971,-35.001 5.69971,-42.501 2.99999,-4.4 9.8001,-9.5991 14.60009,-11.0991 4.8,-1.6 44.00001,-2.4001 51,-1.1001 4.5,0.8 5.2003,0.699 4.8003,-0.501 -0.3,-0.8 -0.19971,-1.1994 0.30029,-0.8994 z M 450,1075.9878 c 0.075,-0.1375 0.24951,-0.1383 0.49951,0.012 0.5,0.3 1.40098,2.2008 2.00098,4.3008 0.6,2.2 0.99902,18.2992 0.99902,40.6992 0,33.8 -0.1999,37.301 -1.8999,41.001 -2.2,4.8 -4.39991,6.9 -9.3999,9 -5.1,2.1 -60.6002,2.2 -65.2002,0 -1.6,-0.7 -2.39883,-1.4004 -1.79883,-1.4004 1,-0.1 0.99961,-0.7004 0.0996,-2.9004 -1.7,-3.9 -2.30087,-51.7997 -0.90088,-61.1997 1.6,-10 4.50128,-16.3 9.80127,-21 7.4,-6.5 10.89905,-7.3003 35.49903,-7.8003 12.29998,-0.2 23.5998,6e-4 26.2998,0.6006 3.9,0.8 4.5001,0.799 4.1001,-0.501 -0.15,-0.4 -0.17461,-0.674 -0.0996,-0.8115 z m 304.03711,0.4116 c 0.1625,0.2 0.46279,0.7511 0.86279,1.6011 1.3,2.5 1.49961,9.7999 1.59961,42.3999 v 39.3999 l -2.49902,4.2993 c -1.6,2.8 -3.89981,4.9003 -6.79981,6.3003 -4.09999,2 -5.90032,2.1006 -33.30029,2.1006 -18.49998,0 -30.30039,-0.4001 -32.90039,-1.1001 -2.2,-0.7 -3.50039,-1.4011 -2.90039,-1.6011 0.8,-0.3 0.90068,-1.6992 0.20068,-4.6992 -0.5,-2.4 -0.80058,-17.7997 -0.60058,-34.1997 0.3,-26.2 0.60019,-30.4999 2.20019,-34.8999 3.8,-10.4 11.00021,-16.101 23.2002,-18.501 6.59999,-1.3 46.59922,-1.0001 49.69922,0.3999 1.4,0.7 1.60117,0.401 1.20117,-0.999 -0.15,-0.55 -0.12588,-0.701 0.0366,-0.501 z m -639.49951,0.1509 c 10.96249,-0.15 21.96309,0.1 25.16308,0.8496 2.6,0.6 3.79864,0.4997 4.09864,-0.3003 0.2,-0.6 0.90107,0.7004 1.60107,2.9004 0.7,2.7 1.1001,16.6005 1.1001,41.5005 0,42.0999 0.0996,41.299 -7.40039,47.499 l -3.79981,3 -30.09961,0.3003 c -21.499975,0.2 -31.401171,6e-4 -34.201168,-0.8994 -2.199998,-0.6 -3.399316,-1.4011 -2.799317,-1.6011 0.999999,-0.4 0.999999,-0.8986 0,-2.5986 C 66.500197,1164.1007 65.900002,1112.3 67.5,1104 c 2.899997,-14.9 9.40011,-22.4999 22.100098,-25.8999 3.049997,-0.85 13.975012,-1.3998 24.937502,-1.5498 z m 1069.0005,0 c 10.9625,-0.15 21.9616,0.1 25.1616,0.8496 2.6,0.6 3.8001,0.4997 4.1001,-0.3003 0.2,-0.6 0.8996,0.7004 1.5996,2.9004 0.7,2.7 1.1001,16.6005 1.1001,41.5005 0,42.0999 0.1011,41.299 -7.3989,47.499 l -3.8013,3 -30.0996,0.3003 c -21.5,0.2 -31.3997,6e-4 -34.1997,-0.8994 -2.2,-0.6 -3.4993,-1.4011 -2.7993,-1.6011 0.9,-0.3 0.8996,-1.0996 0.1,-3.0996 -1.5,-3.8 -2.2005,-47.5999 -1.0005,-58.8999 2,-17.5 8.3008,-25.9997 22.3008,-29.6997 3.05,-0.85 13.975,-1.3998 24.9375,-1.5498 z m -153.3633,0.075 c 10.675,-0.025 21.2254,0.2249 23.5254,0.7749 2.6,0.6 3.8001,0.4997 4.1001,-0.3003 0.2,-0.6 0.8996,0.7004 1.5996,2.9004 0.7,2.7 1.1001,16.3995 1.1001,40.9995 0,41.7 -0.1996,42.5011 -7.5996,48.1011 l -3.7002,2.8989 -30.0996,0.3003 c -21.49999,0.2 -31.20011,6e-4 -34.10011,-0.8994 -2.2,-0.6 -3.50078,-1.4011 -2.80078,-1.6011 0.9,-0.3 0.89961,-1.0996 0.0996,-3.0996 -1.6,-3.8 -2.29942,-49.9992 -0.89942,-60.1992 2.3,-17.2 9.79953,-26.101 24.49951,-29.001 2.8,-0.55 13.6004,-0.8495 24.2754,-0.8745 z m -153.88769,0.013 c 10.68749,-0.1125 21.5626,0.1117 24.9126,0.7617 2.89999,0.6 4.39961,0.4997 4.59961,-0.3003 0.3,-0.6 1.00107,0.2007 1.60107,1.7007 1.5,3.8 1.5,78.4004 0,82.4004 -1.4,3.8 -5.70059,8.2994 -9.60059,9.8994 -4.69999,2 -61.39932,1.9004 -65.79931,-0.1 -1.6,-0.7 -2.40029,-1.4004 -1.80029,-1.4004 0.89999,-0.1 0.99921,-0.8008 0.19921,-2.8008 -1.49999,-4.1 -2.30009,-43.1988 -1.10009,-55.7988 1.3,-13.2 3.20068,-18.9003 7.70068,-24.3003 3.7,-4.2 8.19952,-6.8008 15.49951,-8.8008 2.6,-0.7 13.10011,-1.1487 23.7876,-1.2612 z M 577.00049,1077 c 12.69999,0.2 23.7998,0.5002 24.7998,0.7002 1,0.1 2.09903,1.3993 2.49903,2.7993 0.4,1.4 0.70019,19.9006 0.70019,41.1006 v 38.5005 l -2.79931,4.2993 c -5.1,7.7 -6.79975,8.1006 -40.19971,8.1006 -27.49997,0 -35.60049,-0.7 -37.00049,-3 -0.4,-0.6 0.1001,-0.7003 1.1001,-0.3003 1.4,0.5 1.59941,0.2992 0.89941,-1.3008 -0.5,-1 -1.09931,-14.3997 -1.29931,-29.6997 -0.5,-36.1 0.89971,-44.7 8.6997,-52.5 8.09999,-8 13.90062,-9.1997 42.60059,-8.6997 z" />
  <g
     inkscape:groupmode="layer"
     id="layer1"
     inkscape:label="Speedometer">
    <g
       id="g73385"
       transform="matrix(0.8894651,0,0,0.8894651,69.504332,70.156127)">
      <circle
         style="fill:url(#radialGradient44003);fill-opacity:1;stroke:none;stroke-width:7.50058;stroke-dasharray:none;stroke-opacity:1;paint-order:markers fill stroke"
         id="path22400"
         cx="628.79987"
         cy="634.69659"
         r="328.19632" />
      <path
         style="color:#000000;fill:#ff0000;-inkscape-stroke:none;paint-order:markers fill stroke"
         d="m 884.73633,450.58203 -61.25,44.0625 c 29.35356,40.80423 45.14062,89.78727 45.14062,140.05274 0,51.49838 -16.57088,101.61466 -47.26953,142.96289 l 60.58203,44.97851 c 40.34985,-54.34749 62.14258,-120.25271 62.14258,-187.9414 0,-66.06923 -20.76321,-130.48192 -59.3457,-184.11524 z"
         id="path51995" />
      <path
         id="path22521"
         style="fill:#ffffff;fill-opacity:1;stroke:none;stroke-width:4.09631;paint-order:markers fill stroke"
         d="m 615.08496,315.1377 c -3.08222,0.19289 -6.15345,0.43201 -9.21533,0.71484 l 6.75586,83.80371 c 2.17117,-0.15349 4.34503,-0.26865 6.52148,-0.34717 z m 27.43067,0 -4.06202,84.17138 c 2.17644,0.0785 4.35032,0.19358 6.52149,0.34717 l 6.75732,-83.80371 c -3.06186,-0.28283 -6.13458,-0.52201 -9.21679,-0.71484 z m -63.48926,4.37255 c -2.99376,0.54078 -5.97486,1.12359 -8.94287,1.74903 l 16.96728,81.91552 c 2.13714,-0.43628 4.27999,-0.83737 6.42774,-1.2041 z m 99.5581,0.001 -14.45508,82.46045 c 2.14771,0.36686 4.29063,0.76921 6.42774,1.20556 l 16.97021,-81.91552 c -2.96798,-0.62553 -5.94915,-1.20959 -8.94287,-1.75049 z m -134.44189,8.37305 c -4.83615,1.45474 -9.62853,3.02137 -14.37598,4.69775 -4.74741,1.67641 -9.44974,3.46236 -14.10205,5.354 l 39.73389,96.78809 c 3.11063,-1.29522 6.24435,-2.50991 9.39697,-3.64307 3.15265,-1.13312 6.32449,-2.18473 9.5127,-3.14941 z m 169.31543,0 -30.16553,100.04882 c 3.18821,0.96467 6.36005,2.01476 9.5127,3.14795 3.15261,1.13315 6.28633,2.34925 9.39697,3.64453 l 39.73389,-96.78955 c -4.65231,-1.89166 -9.35318,-3.67613 -14.10059,-5.35254 -4.74743,-1.67644 -9.5413,-3.24443 -14.37744,-4.69921 z m -221.89746,21.01464 c -2.66527,1.34486 -5.3109,2.72551 -7.93653,4.14112 l 40.15723,73.70508 c 1.94983,-1.07129 3.91137,-2.11614 5.88574,-3.13184 z m 274.48974,0.006 -38.11084,74.71289 c 1.97437,1.01573 3.93741,2.059 5.88721,3.13038 l 40.16016,-73.70215 c -2.62557,-1.4157 -5.27129,-2.79616 -7.93653,-4.14112 z m -305.15918,17.58545 c -2.50054,1.61671 -4.97855,3.26618 -7.43408,4.94824 l 47.82129,69.26514 c 1.83953,-1.27797 3.69404,-2.53106 5.56348,-3.75879 z m 335.81836,0.001 -45.95068,70.45312 c 1.86942,1.22773 3.72541,2.48082 5.56494,3.75879 l 47.81982,-69.26367 c -2.45552,-1.68211 -4.93355,-3.33151 -7.43408,-4.94824 z m -364.3916,20.67773 c -2.31468,1.86718 -4.60434,3.76371 -6.86865,5.69092 l 54.77197,64.11914 c 1.70809,-1.46334 3.4334,-2.90432 5.17676,-4.32275 z m 392.96484,0.001 -53.08007,65.48584 c 1.74332,1.41844 3.46866,2.85942 5.17675,4.32275 l 54.77198,-64.11768 c -2.26431,-1.9272 -4.55398,-3.82372 -6.86866,-5.69091 z m -419.21484,23.52832 c -2.10757,2.09654 -4.18837,4.2209 -6.24023,6.37207 l 61.01513,58.26123 c 1.55543,-1.62754 3.13098,-3.23572 4.72705,-4.82373 z m 445.47217,0.009 -59.50488,59.80664 c 1.596,1.58806 3.17169,3.19759 4.72705,4.82519 l 61.0166,-58.25976 c -2.05182,-2.15125 -4.13127,-4.27546 -6.23877,-6.37207 z m -469.14111,26.1167 c -3.15139,3.8646 -6.21655,7.80032 -9.19483,11.80224 -2.97828,4.00194 -5.86866,8.07077 -8.66748,12.20361 l 86.87988,59.31006 c 1.95815,-2.8354 3.98141,-5.63297 6.06592,-8.39062 2.08451,-2.75764 4.23063,-5.47543 6.43506,-8.14893 z m 492.80273,0.001 -81.51855,66.77637 c 2.20443,2.67348 4.35055,5.39126 6.43505,8.14892 2.08448,2.75765 4.10776,5.55519 6.06592,8.39063 l 86.87988,-59.31006 c -2.79878,-4.13286 -5.68923,-8.20165 -8.66748,-12.20361 -2.97825,-4.00195 -6.04349,-7.93758 -9.19482,-11.80225 z M 350.61621,483.2417 c -1.47135,2.59284 -2.90788,5.20773 -4.30957,7.84131 l 73.90869,39.75439 c 1.06038,-1.95482 2.14876,-3.89794 3.26367,-5.82715 z m 556.37256,0.0103 -72.86279,41.76563 c 1.11485,1.92921 2.20185,3.8723 3.2622,5.82715 l 73.91016,-39.75147 c -1.40164,-2.63361 -2.83828,-5.24842 -4.30957,-7.84131 z m -572.1709,31.68604 c -1.18798,2.74604 -2.3382,5.50964 -3.45117,8.29101 l 77.60303,31.3462 c 0.83146,-2.04285 1.6941,-4.07558 2.58545,-6.09815 z m 587.96338,0.001 -76.73584,33.53907 c 0.89136,2.02257 1.75254,4.05529 2.58398,6.09814 l 77.6045,-31.34473 c -1.11297,-2.7814 -2.26468,-5.54644 -3.45264,-8.29248 z m -600.2666,33.36768 c -0.88357,2.87796 -1.72805,5.77124 -2.53125,8.6792 l 80.58838,22.23193 c 0.58148,-2.10965 1.19462,-4.2114 1.84131,-6.30615 z m 612.57129,0.001 -79.8999,24.60498 c 0.64663,2.09478 1.26138,4.19651 1.84277,6.30616 l 80.58691,-22.23194 c -0.80327,-2.90798 -1.64627,-5.80124 -2.52978,-8.6792 z m -621.14209,34.81495 c -0.55787,2.9887 -1.07328,5.99106 -1.54541,9.00439 l 82.86328,12.40723 c 0.31016,-2.15524 0.65635,-4.30547 1.03711,-6.45118 z m 629.71435,0.0117 -82.35498,14.95752 c 0.38073,2.14575 0.72552,4.2959 1.03565,6.45118 l 82.86474,-12.4043 c -0.47201,-3.0134 -0.98764,-6.01567 -1.54541,-9.0044 z m -634.29492,35.99414 c -0.35379,5.16179 -0.58038,10.35217 -0.67676,15.5669 h -0.001 c 0.0963,5.21448 0.323,10.40386 0.67676,15.56543 h 0.001 l 105.12158,-5.75537 c -0.10805,-3.26946 -0.11539,-6.54079 -0.019,-9.81006 -0.0963,-3.2694 -0.089,-6.54047 0.019,-9.81006 z m 638.87402,0.003 -105.12304,5.75538 c 0.10807,3.26909 0.11533,6.53965 0.019,9.80859 -10e-6,4.9e-4 2e-5,9.8e-4 0,0.001 0.0963,3.26891 0.0889,6.5395 -0.019,9.8086 l 105.12304,5.75683 c 0.35372,-5.16133 0.58047,-10.35117 0.67676,-15.56543 1e-5,-4.8e-4 -10e-6,-9.7e-4 0,-0.001 -0.0963,-5.21425 -0.32304,-10.40267 -0.67676,-15.56397 z m -552.97705,45.71778 -82.86328,12.40429 c 0.47204,3.0134 0.98763,6.0142 1.54541,9.00293 l 82.35498,-14.95605 c -0.38067,-2.14574 -0.72701,-4.29592 -1.03711,-6.45117 z m 467.07715,0.007 c -0.31022,2.15524 -0.65491,4.30547 -1.03564,6.45117 l 82.35351,14.96045 c 0.55786,-2.9887 1.07331,-5.99102 1.54541,-9.00439 z m -461.76709,25.31543 -80.58691,22.2334 c 0.80316,2.90795 1.64624,5.80124 2.52978,8.6792 l 79.89991,-24.60498 c -0.64669,-2.09474 -1.26132,-4.19797 -1.84278,-6.30762 z m 456.4585,0.001 c -0.58139,2.10964 -1.19605,4.2114 -1.84277,6.30615 l 79.8999,24.60498 c 0.8836,-2.87795 1.7266,-5.77124 2.52978,-8.6792 z m -448.05908,24.64306 -77.60303,31.34473 c 1.11294,2.78142 2.26319,5.54644 3.45117,8.29248 l 76.73584,-33.53906 c -0.89132,-2.02261 -1.75253,-4.05531 -2.58398,-6.09815 z m 439.65966,0 c -0.83144,2.04285 -1.69262,4.07554 -2.58398,6.09815 l 76.73584,33.53906 c 1.18804,-2.74604 2.33821,-5.50961 3.45117,-8.29102 z m -428.41845,23.73194 -73.90869,39.75146 c 1.40161,2.63364 2.83833,5.24695 4.30957,7.83985 L 423.47461,744.375 c -1.11485,-1.92924 -2.20336,-3.87083 -3.26367,-5.82568 z m 417.17431,0.007 c -1.06038,1.95483 -2.14872,3.89652 -3.26367,5.82568 l 72.86133,41.76856 c 1.47137,-2.59287 2.90793,-5.20628 4.30957,-7.83984 z m -385.96875,10.69482 -86.88134,59.31006 c 2.79879,4.13286 5.68924,8.2017 8.66748,12.20362 2.97827,4.002 6.04495,7.93616 9.19629,11.80078 l 81.51709,-66.7749 c -2.20441,-2.67349 -4.34908,-5.3913 -6.4336,-8.14893 -2.08447,-2.75765 -4.10773,-5.55523 -6.06592,-8.39063 z m 354.76612,0 c -1.95815,2.83541 -3.97995,5.63295 -6.06446,8.39063 -2.0845,2.75764 -4.23065,5.47541 -6.43505,8.14893 l 81.51709,66.77636 c 3.15133,-3.8646 6.21804,-7.80033 9.19628,-11.80224 2.97826,-4.00192 5.8687,-8.0708 8.66748,-12.20362 z" />
      <circle
         style="fill:url(#radialGradient24993);fill-opacity:1;stroke:#000000;stroke-width:1.33738;stroke-linecap:butt;stroke-dasharray:none;stroke-opacity:1;paint-order:markers fill stroke;filter:url(#filter65302)"
         id="path23458"
         r="59.981754"
         cy="634.69659"
         cx="628.79987" />
      <path
         id="path63098"
         style="mix-blend-mode:normal;fill:#552200;fill-opacity:1;stroke:#000000;stroke-width:1.702;stroke-dasharray:none;stroke-opacity:1;paint-order:markers fill stroke;filter:url(#filter64559)"
         d="m 388.71811,472.06571 246.06343,157.34161 -22.06976,30.08954 z"
         sodipodi:nodetypes="cccc"
         inkscape:transform-center-x="111.52518"
         inkscape:transform-center-y="-79.595845" />
      <path
         id="rect54227"
         style="fill:#ff6600;stroke-width:1.70245;paint-order:markers fill stroke"
         d="m 393.21811,464.56571 246.06343,157.34161 -22.06976,30.08954 z"
         sodipodi:nodetypes="cccc"
         inkscape:transform-center-x="111.52518"
         inkscape:transform-center-y="-79.595845" />
    </g>
  </g>
</svg>
