<?xml version="1.0" encoding="UTF-8" standalone="no"?>
<!-- Created with Inkscape (http://www.inkscape.org/) -->

<svg
   version="1.1"
   id="svg2"
   width="512"
   height="512"
   viewBox="0 0 512 512"
   sodipodi:docname="position.svg"
   inkscape:version="1.2.2 (b0a8486541, 2022-12-01)"
   xmlns:inkscape="http://www.inkscape.org/namespaces/inkscape"
   xmlns:sodipodi="http://sodipodi.sourceforge.net/DTD/sodipodi-0.dtd"
   xmlns="http://www.w3.org/2000/svg"
   xmlns:svg="http://www.w3.org/2000/svg">
  <defs
     id="defs6" />
  <sodipodi:namedview
     id="namedview4"
     pagecolor="#727272"
     bordercolor="#000000"
     borderopacity="0.25"
     inkscape:showpageshadow="2"
     inkscape:pageopacity="0"
     inkscape:pagecheckerboard="true"
     inkscape:deskcolor="#d1d1d1"
     showgrid="false"
     inkscape:zoom="3.455432"
     inkscape:cx="264.80046"
     inkscape:cy="104.61789"
     inkscape:window-width="1920"
     inkscape:window-height="1003"
     inkscape:window-x="0"
     inkscape:window-y="40"
     inkscape:window-maximized="1"
     inkscape:current-layer="g30" />
  <g
     inkscape:groupmode="layer"
     inkscape:label="Image"
     id="g8">
    <g
       id="g30"
       style="fill:#ffffff"
       transform="matrix(8.4765695,0,0,8.3333331,80.681218,20.815162)">
      <path
         d="m 28.741033,1.2603228 c -2.146024,-2.4238457 -5.007391,-3.7581423 -8.058696,-3.7581423 -3.051305,0 -5.912672,1.3342966 -8.057751,3.7581423 -4.3581976,4.9242333 -4.3581976,12.9347372 0,17.8589702 l 8.057751,9.102888 8.057752,-9.102888 C 33.099231,14.19506 33.099231,6.1845561 28.741048,1.2603228 Z M 27.32547,17.866265 20.683282,25.370264 14.04015,17.866265 c -3.747748,-4.232517 -3.747748,-11.1203969 0,-15.3529135 1.781266,-2.01278371 4.140854,-3.12123271 6.642187,-3.12123271 2.501333,0 4.861866,1.108449 6.642188,3.12123271 3.747747,4.2325166 3.747747,11.1194515 9.6e-4,15.3529135 z"
         id="path1"
         style="fill:#ffffff;stroke-width:0.944969" />
      <path
         d="m 28.741033,1.1992065 c -17.451769,-4.0219342 -8.725884,-2.01096701 0,0 z m -1.415564,16.7480185 -6.642188,7.568202 -6.643132,-7.568202 c -3.747748,-4.268729 -3.747748,-11.2155399 0,-15.4842685 1.781266,-2.03000521 4.140854,-3.14793781 6.642187,-3.14793781 2.501333,0 4.861866,1.1179326 6.642188,3.14793781 3.747748,4.2687286 3.747748,11.2145865 9.6e-4,15.4842685 z"
         id="path1-3"
         style="fill:#0109b8;fill-opacity:1;stroke-width:0.949001"
         sodipodi:nodetypes="ccccccsccc" />
      <ellipse
         style="fill:#ffffff;fill-opacity:1;stroke-width:1.58038;stroke-linecap:round;stroke-linejoin:round;stroke-miterlimit:10"
         id="path1623"
         cx="20.759567"
         cy="9.6803093"
         rx="7.7203197"
         ry="7.8530192" />
      <path
         fill-rule="evenodd"
         clip-rule="evenodd"
         d="m 22.460275,6.5408256 c 0.490863,0 0.888761,-0.4047512 0.888761,-0.904038 0,-0.4992868 -0.397898,-0.904038 -0.888761,-0.904038 -0.490864,0 -0.888762,0.4047512 -0.888762,0.904038 0,0.4992868 0.397898,0.904038 0.888762,0.904038 z M 21.235029,6.3283452 c 0.147089,0.037455 0.265251,0.148606 0.313465,0.2948474 0.08079,0.2451712 0.193795,0.4602728 0.332754,0.6408551 0.382878,0.4976548 1.000967,0.7810749 1.839114,0.6389874 0.242098,-0.041041 0.471043,0.1253089 0.511393,0.3715554 0.04036,0.2462598 -0.123183,0.4791402 -0.365281,0.5201829 -0.949287,0.1609191 -1.770992,-0.084617 -2.364507,-0.6245903 l -1.206227,1.0768356 0.721364,0.8382243 c 0.07092,0.0824 0.110025,0.18822 0.110025,0.297745 v 2.034085 c 0,0.24965 -0.198949,0.452019 -0.444381,0.452019 -0.245431,0 -0.44438,-0.202369 -0.44438,-0.452019 V 10.552901 L 19.33579,9.5040819 19.316076,9.4816168 C 19.209839,9.3607916 19.032013,9.1585134 18.954752,8.9196217 18.907283,8.772851 18.892474,8.6032985 18.943341,8.4242536 18.99263,8.2507192 19.093524,8.1036049 19.218867,7.9784455 l 0.0062,-0.00604 1.596967,-1.5341798 c 0.110205,-0.1058991 0.265919,-0.1473179 0.413009,-0.1098685 z m -4.996085,5.1846898 c 0,-0.74895 0.596869,-1.356057 1.333142,-1.356057 0.736272,0 1.333142,0.607107 1.333142,1.356057 0,0.74895 -0.59687,1.356057 -1.333142,1.356057 -0.736273,0 -1.333142,-0.607107 -1.333142,-1.356057 z m 1.333142,-2.2600948 c -1.227123,0 -2.221905,1.0118898 -2.221905,2.2600948 0,1.248205 0.994782,2.260095 2.221905,2.260095 1.227121,0 2.221904,-1.01189 2.221904,-2.260095 0,-1.248205 -0.994783,-2.2600948 -2.221904,-2.2600948 z m 4.888189,2.2600948 c 0,-0.74895 0.596848,-1.356057 1.333143,-1.356057 0.736294,0 1.333142,0.607107 1.333142,1.356057 0,0.74895 -0.596848,1.356057 -1.333142,1.356057 -0.736295,0 -1.333143,-0.607107 -1.333143,-1.356057 z m 1.333143,-2.2600948 c -1.227114,0 -2.221905,1.0118898 -2.221905,2.2600948 0,1.248205 0.994791,2.260095 2.221905,2.260095 1.227113,0 2.221904,-1.01189 2.221904,-2.260095 0,-1.248205 -0.994791,-2.2600948 -2.221904,-2.2600948 z"
         fill="#000000"
         id="path1737"
         style="stroke-width:0.448183" />
    </g>
  </g>
</svg>
