<?xml version="1.0" encoding="UTF-8" standalone="no"?>
<!-- Created with Inkscape (http://www.inkscape.org/) -->

<svg
   version="1.1"
   id="svg2"
   width="512"
   height="512"
   viewBox="0 0 512 512"
   sodipodi:docname="start.svg"
   inkscape:version="1.2.2 (b0a8486541, 2022-12-01)"
   xmlns:inkscape="http://www.inkscape.org/namespaces/inkscape"
   xmlns:sodipodi="http://sodipodi.sourceforge.net/DTD/sodipodi-0.dtd"
   xmlns="http://www.w3.org/2000/svg"
   xmlns:svg="http://www.w3.org/2000/svg">
  <defs
     id="defs6" />
  <sodipodi:namedview
     id="namedview4"
     pagecolor="#727272"
     bordercolor="#000000"
     borderopacity="0.25"
     inkscape:showpageshadow="2"
     inkscape:pageopacity="0"
     inkscape:pagecheckerboard="true"
     inkscape:deskcolor="#d1d1d1"
     showgrid="false"
     inkscape:zoom="1.727716"
     inkscape:cx="217.04956"
     inkscape:cy="188.97782"
     inkscape:window-width="1920"
     inkscape:window-height="1003"
     inkscape:window-x="0"
     inkscape:window-y="40"
     inkscape:window-maximized="1"
     inkscape:current-layer="g30" />
  <g
     inkscape:groupmode="layer"
     inkscape:label="Image"
     id="g8">
    <g
       id="g30"
       style="fill:#ffffff"
       transform="matrix(8.4765695,0,0,8.3333331,80.681218,20.815162)">
      <path
         d="m 28.741033,1.2603228 c -2.146024,-2.4238457 -5.007391,-3.7581423 -8.058696,-3.7581423 -3.051305,0 -5.912672,1.3342966 -8.057751,3.7581423 -4.3581976,4.9242333 -4.3581976,12.9347372 0,17.8589702 l 8.057751,9.102888 8.057752,-9.102888 C 33.099231,14.19506 33.099231,6.1845561 28.741048,1.2603228 Z M 27.32547,17.866265 20.683282,25.370264 14.04015,17.866265 c -3.747748,-4.232517 -3.747748,-11.1203969 0,-15.3529135 1.781266,-2.01278371 4.140854,-3.12123271 6.642187,-3.12123271 2.501333,0 4.861866,1.108449 6.642188,3.12123271 3.747747,4.2325166 3.747747,11.1194515 9.6e-4,15.3529135 z"
         id="path1"
         style="fill:#ffffff;stroke-width:0.944969" />
      <path
         d="m 28.741033,1.1992065 c -17.451769,-4.0219342 -8.725884,-2.01096701 0,0 z m -1.415564,16.7480185 -6.642188,7.568202 -6.643132,-7.568202 c -3.747748,-4.268729 -3.747748,-11.2155399 0,-15.4842685 1.781266,-2.03000521 4.140854,-3.14793781 6.642187,-3.14793781 2.501333,0 4.861866,1.1179326 6.642188,3.14793781 3.747748,4.2687286 3.747748,11.2145865 9.6e-4,15.4842685 z"
         id="path1-3"
         style="fill:#33ae00;fill-opacity:1;stroke-width:0.949001"
         sodipodi:nodetypes="ccccccsccc" />
      <path
         sodipodi:type="star"
         style="fill:#ffffff;stroke-width:0.951854;stroke-linecap:round;stroke-linejoin:round;stroke-miterlimit:10"
         id="path289"
         inkscape:flatsided="true"
         sodipodi:sides="3"
         sodipodi:cx="184.77228"
         sodipodi:cy="145.91679"
         sodipodi:r1="89.46505"
         sodipodi:r2="44.732525"
         sodipodi:arg1="0"
         sodipodi:arg2="1.0471976"
         inkscape:rounded="0"
         inkscape:randomized="0"
         d="m 274.23733,145.91679 -134.19758,77.47901 0,-154.958012 z"
         transform="matrix(0.06557546,0,0,0.0667026,7.807333,0.37101679)"
         inkscape:transform-center-x="-12.432386"
         inkscape:transform-center-y="-2.5686686e-06" />
    </g>
  </g>
</svg>
