<?xml version="1.0" encoding="UTF-8" standalone="no"?>
<!-- Uploaded to: SVG Repo, www.svgrepo.com, Generator: SVG Repo Mixer Tools -->

<svg
   fill="#000000"
   version="1.1"
   id="Capa_1"
   viewBox="0 0 377.021 377.021"
   xml:space="preserve"
   sodipodi:docname="DataOverlay_icn_battery.svg"
   inkscape:version="1.2.2 (b0a8486541, 2022-12-01)"
   xmlns:inkscape="http://www.inkscape.org/namespaces/inkscape"
   xmlns:sodipodi="http://sodipodi.sourceforge.net/DTD/sodipodi-0.dtd"
   xmlns="http://www.w3.org/2000/svg"
   xmlns:svg="http://www.w3.org/2000/svg"><defs
   id="defs2" /><sodipodi:namedview
   id="namedview2"
   pagecolor="#5c5c5c"
   bordercolor="#000000"
   borderopacity="0.25"
   inkscape:showpageshadow="2"
   inkscape:pageopacity="0"
   inkscape:pagecheckerboard="true"
   inkscape:deskcolor="#d1d1d1"
   showgrid="false"
   inkscape:zoom="2.0608932"
   inkscape:cx="182.44517"
   inkscape:cy="164.7344"
   inkscape:window-width="1920"
   inkscape:window-height="1003"
   inkscape:window-x="0"
   inkscape:window-y="40"
   inkscape:window-maximized="1"
   inkscape:current-layer="g2" />
<g
   id="g2">
	<path
   d="M 279.522,48.163 H 257.436 V 36 c 0,-11.028 -8.972,-12 -20,-12 h -97.85 c -11.028,0 -20,0.972 -20,12 V 48.163 H 97.5 c -16.542,0 -26,9.458 -26,26 v 260.858 c 0,16.542 9.458,30 26,30 h 182.022 c 16.542,0 26,-9.458 26,-26 V 74.163 c 0,-16.542 -9.458,-26 -26,-26 z M 93.5,343.021 V 70.163 h 190.022 l 0.003,272.858 z"
   id="path1"
   style="fill:#ffffff"
   sodipodi:nodetypes="scsssscssssssssccccc" />
	<rect
   x="122.586"
   y="288.30078"
   width="131.85001"
   height="37.862221"
   id="rect1"
   style="fill:#ffffff;stroke-width:0.796619" />
	
<rect
   x="122.586"
   y="234.30078"
   width="131.85001"
   height="37.862221"
   id="rect9945"
   style="fill:#ffffff;stroke-width:0.796619" /><rect
   x="122.586"
   y="182.30078"
   width="131.85001"
   height="37.862221"
   id="rect9947"
   style="fill:#ffffff;stroke-width:0.796619" /></g>
</svg>
