<?xml version="1.0" encoding="UTF-8" standalone="no"?>
<!-- Created with Inkscape (http://www.inkscape.org/) -->

<svg
   version="1.1"
   id="svg2"
   width="512"
   height="512"
   viewBox="0 0 512 512"
   sodipodi:docname="bike.svg"
   inkscape:version="1.2.2 (b0a8486541, 2022-12-01)"
   xmlns:inkscape="http://www.inkscape.org/namespaces/inkscape"
   xmlns:sodipodi="http://sodipodi.sourceforge.net/DTD/sodipodi-0.dtd"
   xmlns="http://www.w3.org/2000/svg"
   xmlns:svg="http://www.w3.org/2000/svg">
  <defs
     id="defs6" />
  <sodipodi:namedview
     id="namedview4"
     pagecolor="#727272"
     bordercolor="#000000"
     borderopacity="0.25"
     inkscape:showpageshadow="2"
     inkscape:pageopacity="0"
     inkscape:pagecheckerboard="true"
     inkscape:deskcolor="#d1d1d1"
     showgrid="false"
     inkscape:zoom="0.89827128"
     inkscape:cx="-203.72465"
     inkscape:cy="431.38416"
     inkscape:window-width="1920"
     inkscape:window-height="1003"
     inkscape:window-x="0"
     inkscape:window-y="40"
     inkscape:window-maximized="1"
     inkscape:current-layer="g12">
    <inkscape:page
       x="0"
       y="0"
       id="page8"
       width="512"
       height="512" />
  </sodipodi:namedview>
  <g
     id="g10"
     inkscape:groupmode="layer"
     inkscape:label="Page 1"
     transform="matrix(1.3333333,0,0,-1.3333333,0,2626.0533)">
    <g
       id="g12"
       transform="scale(0.1)">
      <path
         id="path14"
         style="fill:#ffffff;fill-opacity:1;fill-rule:nonzero;stroke:none;stroke-width:0.177939"
         d="m 2582.6489,19524.381 c -95.0097,0.903 -188.4804,-24.829 -280.7775,-45.1 -10.2137,-2.953 -27.1858,-3.67 -24.8193,-18.616 8.8793,-15.109 26.4936,-22.663 38.7535,-35.066 -11.6551,-38.647 -27.8003,-76.172 -36.6261,-115.621 18.2211,-37.723 61.7059,-55.586 82.4002,-91.796 4.7332,-24.021 -18.4252,-45.35 -7.4105,-68.998 -12.3491,-17.154 -31.6717,-4.134 -48.3267,-3.44 -133.0095,9.36 -267.4465,-3.495 -396.6482,-36.164 -157.9566,-38.701 -309.6871,-103.872 -445.1165,-194.052 -11.4414,-8.612 -26.3326,-0.269 -39.0019,-4.149 -15.0536,-9.5 -27.5169,-22.474 -41.0582,-33.932 -35.5735,-32.778 -74.98,-61.245 -108.354,-96.442 -14.4023,-15.851 -26.1152,-34.307 -42.9375,-47.901 -11.1763,-10.374 -24.7595,-19.008 -32.3361,-32.654 -0.053,-12.154 2.0932,-24.171 3.652,-36.271 -51.8623,-65.731 -99.3922,-136.462 -127.7132,-215.788 -22.3579,-63.416 -30.6792,-134.368 -9.2895,-199.227 -22.4647,1.123 -45.0453,3.108 -67.50852,1.595 -15.9628,-0.641 -27.1957,-17.229 -25.5285,-32.335 3.9769,-14.661 21.2455,-17.686 32.69072,-24.785 43.2089,-19.609 81.4831,-48.335 123.7775,-69.671 15.5857,-8.932 34.1129,-6.487 50.7733,-11.594 40.9508,-38.525 80.2242,-79.322 117.3598,-121.438 14.8313,-48.097 24.9167,-97.642 37.8672,-146.291 -7.2564,-4.02 -18.4138,-3.904 -22.3374,-12.233 0.8595,-8.646 1.749,-17.805 5.7794,-25.812 5.8026,-10.316 19.1764,-1.665 28.2585,-1.665 3.2793,-13.066 6.4903,-26.173 9.8213,-39.287 -70.026,-17.788 -109.1776,-84.112 -147.7104,-139.412 -5.5358,-10.481 -22.5835,2.009 -27.9039,-9.752 -3.5482,-11.621 -0.2706,-24.798 -6.6658,-35.598 -8.3828,-14.823 -16.9946,-29.77 -27.9039,-42.937 -10.5874,-2.687 -19.0513,9.629 -29.8541,9.077 -17.8953,-13.201 -16.126,-39.437 -30.4215,-55.56 -5.1585,-7.365 -14.4679,-3.076 -21.1317,-1.028 -54.4389,20.748 -110.32962,38.163 -167.67232,48.823 -207.6034,41.584 -430.4756,-14.52 -597.6137,-143.278 -155.7962,-117.332 -262.206302,-296.784 -292.1943019,-489.296 -18.3242,-123.969 -8.98309998,-252.896 33.2577999,-371.226 25.15,-67.081 57.6039,-131.768 99.738302,-189.867 106.6781,-143.275 261.2713,-253.467 436.1462,-294.641 150.7438,-29.036 199.2576,-30.755 371.0844,3.792 192.71862,43.363 357.69262,173.737 465.50392,336.623 13.8613,-14.557 28.5081,-28.382 42.5476,-42.796 -8.5944,-14.717 -15.309,-30.552 -17.5156,-47.652 50.1433,-25.461 102.3205,-48.858 156.7519,-63.254 14.4132,7.776 22.659,22.59 31.5204,35.704 38.9686,-8.808 78.4754,-18.865 118.672,-18.226 26.7084,-0.961 50.9807,23.851 47.653,50.668 -2.4732,20 -17.4768,35.041 -32.7971,46.553 -26.7085,19.504 -54.0434,38.202 -80.4854,58.042 82.7061,0.48 169.9364,32.984 219.2255,102.256 63.4532,81.906 67.736,201.277 15.8134,289.997 35.9082,39.342 76.1227,74.909 110.0914,115.764 19.9827,2.42 43.9457,-0.487 58.8926,16.06 14.5734,13.649 13.0773,34.879 9.9634,52.725 160.9458,165.841 318.1945,335.221 478.1262,501.987 33.4703,33.202 62.9226,70.874 99.7736,100.447 10.8186,-12.526 23.1201,-23.631 36.7682,-33.044 -3.4341,-59.377 24.0818,-113.121 46.1285,-166.325 48.3104,-121.871 95.2054,-244.713 155.9361,-361.121 39.1289,-75.928 82.9891,-149.28 125.054,-223.552 9.9467,-17.616 10.2195,-43.719 31.9815,-52.048 26.228,-11.991 55.0421,19.548 41.5545,44.815 -61.9586,118.33 -116.1564,241.007 -158.7727,367.68 -28.1501,76.48 -48.9945,155.317 -74.5288,232.663 143.1163,47.173 302.8814,42.351 442.6701,-14.251 97.653,-39.006 185.6506,-102.416 252.2352,-183.947 64.7523,-79.486 111.0913,-174.182 133.1735,-274.29 26.1215,-120.554 15.0856,-248.087 -27.7977,-363.461 -65.3037,-168.973 -203.9874,-308.908 -374.3462,-371.686 -127.2622,-48.257 -270.189,-52.367 -400.832,-15.176 -187.6721,53.417 -346.0017,198.203 -417.1418,379.736 -73.8446,180.466 -55.515,395.29 47.405,560.916 54.4316,90.233 131.658,165.582 220.1118,222.381 -15.6231,37.188 -30.71,74.601 -43.8239,112.717 -131.835,-71.32 -237.8856,-186.454 -306.9439,-318.753 -88.2401,-174.291 -105.1072,-383.033 -48.3623,-569.779 55.8907,-185.414 188.9959,-344.022 357.5401,-438.026 267.0093,-145.086 575.7255,-134.748 831.4469,61.233 79.3255,60.783 146.4634,137.427 196.0018,224.225 109.2191,186.585 131.8038,420.87 61.0911,625.09 -59.663,179.379 -189.7134,333.987 -356.0511,423.774 -153.4723,85.678 -336.7801,112.937 -509.2922,81.229 -5.4269,17.689 -10.4298,35.661 -18.5435,52.333 -7.0465,10.854 -22.7273,3.19 -32.3361,9.256 -7.9539,18.275 -8.2359,38.379 -5.4956,57.721 3.2741,14.717 -11.758,21.262 -20.2456,29.748 -4.3063,13.276 -5.5913,27.143 -8.545,40.632 75.1792,24.781 149.1189,67.87 190.1161,137.783 10.0537,1.353 21.9704,-0.985 30.1023,6.596 7.5625,6.015 10.3213,15.678 14.1469,24.11 24.022,0 46.3017,16.825 52.2271,40.207 4.0748,0.535 12.2526,1.61 16.3452,2.198 -7.0463,-15.588 -14.8644,-32.999 -7.8714,-50.136 7.1888,-32.027 39.2734,-47.206 56.9073,-72.614 7.3667,-8.169 24.2667,-27.777 29.8541,-8.261 -7.1888,14.557 -19.0932,26.48 -23.9329,42.158 -11.4951,33.54 -9.7308,69.559 -10.2115,104.489 12.189,-2.207 25.6977,-16.312 37.4772,-6.063 12.4025,6.513 6.9194,21.881 0.6382,30.742 -16.8687,25.534 -31.0024,52.883 -41.6965,81.585 1.886,30.41 26.1547,53.511 39.0018,79.953 -3.0604,14.982 -16.2133,25.141 -27.9395,33.647 -20.1427,13.041 -46.164,23.522 -70.0258,14.714 -19.9824,-17.527 -27.4486,-48.93 -54.709,-58.184 -28.3636,-1.672 -56.3765,5.689 -84.7401,6.064 -44.4491,1.084 -84.5505,21.511 -126.2594,34.073 -24.9827,6.939 -46.5777,21.491 -68.9269,33.966 -94.8591,53.362 -182.1404,118.734 -272.587,178.806 -11.8686,8.29 -17.6145,22.251 -19.6073,36.06 -6.2279,39.768 -10.8643,79.808 -21.2382,118.777 -14.6799,63.078 -39.7706,126.901 -28.4357,192.74 6.7795,35.908 13.2702,72.249 10.6367,108.958 28.4881,10.534 57.5488,19.562 85.4493,31.696 6.0677,-13.753 8.2819,-31.611 21.8765,-40.313 13.2741,3.168 24.8827,10.807 36.5555,17.694 -3.7189,9.713 -7.5197,19.342 -11.5588,28.861 30.4276,-5.286 59.4578,-15.888 88.8532,-24.926 17.883,-5.107 40.594,-11.047 55.8079,3.51 14.0748,15.053 9.6098,37.392 14.076,55.879 9.0216,7.402 20.8735,11.437 28.4004,20.671 1.7082,8.329 -5.2381,15.963 -7.7648,23.648 7.6869,2.101 16.6596,2.532 22.7275,8.547 3.6653,12.366 5.3425,25.199 8.4031,37.725 16.3525,1.869 46.9016,-4.412 48.7876,18.969 -5.0535,31.815 -24.1292,59.96 -28.5422,92.15 8.1674,31.283 16.7826,62.691 18.4019,95.2 -30.9083,7.954 -62.6409,11.439 -94.1717,14.927 42.0114,3.541 83.6838,-4.512 124.9122,-11.594 10.5339,-3.345 24.3947,0.518 24.0745,13.792 5.3204,76.3 -27.4583,152.439 -80.769,206.285 -52.5633,53.311 -126.6431,80.764 -200.2565,86.832 -13.6367,1.309 -27.2371,1.997 -40.8099,2.127 z m -443.1668,-756.671 c 5.5871,-66.851 6.87,-134.685 23.5429,-200.079 10.623,-36.656 16.542,-74.48 25.6704,-111.615 15.9078,-72.457 38.4415,-143.159 60.5237,-213.944 6.1744,-17.028 10.8263,-36.851 26.7339,-47.652 13.3276,-9.183 28.5938,-15.082 43.4693,-21.309 73.4176,-27.722 146.0797,-58.399 222.6647,-76.834 32.1355,-9.609 65.5796,-12.862 98.1425,-20.317 -30.4096,-3.561 -68.0337,-6.622 -84.1729,-37.087 -8.7012,-18.274 19.3601,-19.927 23.862,-34.322 -3.5944,-9.094 -13.6929,-16.783 -11.8069,-27.264 -1.5123,-12.19 13.6951,-8.244 20.8483,-8.404 6.0144,-18.967 11.3319,-38.183 15.1042,-57.794 -10.5874,-12.685 -10.637,-28.876 -5.7437,-44.035 -225.5556,-10.481 -451.1622,-20.131 -676.3974,-36.307 18.808,-52.5 39.7299,-104.313 58.5382,-156.823 12.9006,-36.21 31.9558,-71.973 29.3223,-111.688 39.8226,39.343 81.8696,76.361 119.8062,117.466 24.9292,27.688 51.0546,54.318 75.6636,82.26 136.6749,4.407 273.3751,10.04 410.1568,11.274 4.2351,-10.05 8.5825,-20.102 12.8353,-30.21 -169.7183,-190.944 -344.3705,-377.386 -521.0284,-561.872 -39.1112,-40.855 -79.9596,-80.115 -116.6509,-123.175 -77.1189,48.809 -126.8321,127.68 -173.2742,203.944 -45.6238,-66.052 -86.156,-135.409 -130.0177,-202.632 31.9757,-13.168 61.1586,-33.025 85.9457,-57.049 1.7614,-13.646 -4.8066,-27.356 -4.2194,-41.271 6.993,-9.304 19.8716,-10.108 29.9604,-14.467 -5.1602,-11.602 -10.3683,-23.181 -15.8134,-34.746 -37.9363,13.38 -78.2445,20.024 -118.4943,17.018 -8.0072,23.256 -15.3245,46.769 -22.9047,70.097 74.6452,116.193 132.9041,242.203 210.3968,356.618 28.5412,40.962 66.215,74.59 94.8097,115.551 28.595,37.402 51.3119,85.504 39.9238,133.494 -9.0216,25.696 -23.2048,49.172 -33.1871,74.423 -15.8546,34.022 -25.4419,70.409 -39.2499,105.232 -40.7303,100.934 -80.1209,202.596 -130.7979,299.11 -28.488,58.418 -64.0198,113.003 -96.5471,169.16 53.3107,-64.271 96.2,-136.735 137.3217,-209.296 8.9149,-14.022 13.9267,-31.444 25.5994,-43.259 72.2255,-8.116 147.2537,-12.94 213.1981,-46.589 -42.4564,-30.568 -77.8214,-69.385 -112.7152,-108.069 128.9345,8.488 257.3593,23.822 386.5076,29.464 26.7087,40.783 56.7381,81.088 68.8913,129.203 9.7867,34.929 -2.7294,73.243 -26.9113,99.312 -39.9826,44.11 -94.2177,70.699 -139.2008,108.814 -151.8177,103.134 -317.1155,190.017 -495.6417,236.246 53.097,11.335 101.9971,36.646 147.8876,64.953 28.9685,18.595 63.2344,26.814 97.2563,29.501 52.9368,5.267 105.934,13.337 156.2908,31.236 -8.9681,64.005 -12.024,129.355 -6.0986,193.733 z m 265.9922,-47.829 c -4.4663,-88.187 28.5378,-172.296 34.4634,-259.576 2.5267,-24.234 2.5127,-49.037 8.5803,-72.791 5.5872,-14.893 22.4165,-20.48 34.57,-28.968 83.6666,-51.104 168.2767,-101.368 258.83,-139.306 25.1603,-10.87 50.9476,-20.148 75.6633,-31.982 -128.6676,34.291 -246.9017,98.69 -361.1565,165.544 -11.2814,6.121 -23.0016,14.222 -25.5283,27.656 -7.7937,36.656 -5.0871,74.5 -10.1406,111.475 -3.5411,25.376 -5.8587,50.837 -8.3322,76.267 -12.4023,49.271 -14.8499,101.43 -6.9494,151.681 z m 394.698,-704.372 c 26.8154,-4.948 53.8647,-9.06 80.8402,-13.509 -31.0683,-57.67 -50.3563,-121.781 -52.8298,-187.458 -26.068,-6.069 -52.9089,-16.605 -79.4571,-15.424 -13.5946,39.766 -24.1823,80.641 -38.2573,120.303 -2.8646,11.654 -17.9846,13.893 -20.5646,25.388 -4.5198,14.518 -8.6508,29.109 -13.5443,43.469 41.2643,8.862 81.8552,22.017 123.8129,27.231 z m 101.7947,-21.24 c 20.7299,-27.242 44.9322,-52.558 75.9826,-68.146 -16.3881,-35.462 -45.1136,-64.288 -79.8827,-81.868 30.5343,44.663 26.3561,102.931 3.9001,150.014 z m -12.6579,-4.289 c 15.6409,-33.916 26.1276,-73.188 12.7997,-109.737 -8.2206,-29.288 -34.4024,-48.051 -60.5237,-60.524 3.7544,59.217 19.5028,117.911 47.724,170.261 z m -1529.898,-236.529 c 1.3347,-7.682 2.6718,-15.413 4.0064,-23.152 -32.9366,-46.158 -62.7016,-94.444 -95.4833,-140.656 -21.9808,-33.913 -46.8207,-65.977 -67.1895,-100.977 -8.1691,12.047 -20.187,20.521 -29.3223,31.483 11.2849,24.626 26.06,49.136 48.1495,65.525 7.2546,6.992 -0.8813,17.183 -1.3119,25.349 35.4151,56.603 74.0805,120.237 141.1511,142.428 z m 1474.0192,-27.017 c 4.1281,-22.348 10.9788,-45.783 -0.1428,-67.33 8.5411,-18.863 20.7805,-36.337 24.6419,-57.404 -15.6409,-5.427 -30.9499,-11.677 -46.1994,-18.084 -13.3808,44.13 -24.9664,88.798 -37.9736,133.068 20.1071,1.886 39.886,5.819 59.6729,9.75 z m -1313.7927,-9.36 c 46.4419,-57.121 103.4227,-106.995 137.7116,-173.098 8.3277,-11.976 -3.1291,-22.89 -10.2824,-31.875 -54.3779,-64.753 -114.1977,-127.317 -149.554,-205.29 -24.6625,-53.096 -26.1034,-112.705 -43.1857,-168.063 -24.5733,-78.417 -57.2969,-153.897 -86.0519,-230.749 -171.1615,-0.218 -342.2921,-5.177 -513.40542,-9.217 97.7564,132.419 188.74182,269.73 283.75562,404.093 80.7739,-58.258 148.9683,-135.268 191.8533,-225.501 20.4221,-40.48 34.872,-83.555 49.0715,-126.545 20.6764,56.477 38.496,113.992 55.418,171.716 6.2455,17.669 -8.5903,33.255 -15.5654,48.361 -52.9369,92.653 -127.1373,172.352 -213.3396,234.897 58.901,84.966 115.3964,171.578 175.047,256.065 33.488,-116.568 65.0432,-233.758 98.8873,-350.272 15.9078,36.975 36.3749,71.895 61.1973,103.604 -28.6838,98.506 -56.8821,197.123 -82.8964,296.377 20.4271,1.566 40.8762,3.466 61.3392,5.497 z m 1303.8649,-156.08 c 23.755,-0.321 45.9154,-36.198 22.0537,-50.914 -7.4556,16.977 -14.1533,34.187 -22.0537,50.914 z m -1626.4451,-78.358 c -9.5662,-16.708 -20.0963,-32.826 -31.2726,-48.574 -4.945,4.021 -9.8622,8.053 -14.6434,12.02 9.7795,17.634 26.4616,31.074 45.916,36.554 z m -418.09922,-51.234 c 65.7967,-1.561 131.3269,-13.073 193.1296,-35.917 43.74622,-14.554 84.20282,-37.055 124.13212,-59.779 -103.34672,-146.976 -206.25372,-294.341 -308.36232,-442.244 -37.0824,12.901 -80.2814,6.852 -110.0559,-19.536 -48.097,6.567 -103.2092,3.972 -141.1509,-30.104 -44.6057,-40.25 -44.8945,-115.243 -6.6304,-159.836 21.8741,-26.121 53.1427,-41.867 84.5276,-53.538 16.0146,-5.855 34.8061,-1.205 49.5321,-10.885 24.1287,-14.929 52.6939,-21.247 76.0181,-37.902 -16.0146,-28.489 -39.287,-52.348 -52.8297,-82.224 -8.1159,-18.059 -14.4757,-36.825 -21.9475,-55.099 34.5044,-5.374 68.1018,-17.481 103.3548,-17.266 170.3626,-3.008 340.75772,-4.688 511.17172,-7.801 -94.3699,-134.096 -241.8175,-229.916 -403.52672,-258.758 -101.5198,-18.168 -207.3516,-11.722 -306.0222,18.366 -183.151,57.83 -337.6366,201.241 -407.1785,380.48 -73.572702,182.92 -51.9906,400.058 53.2906,566.342 96.1974,156.871 262.0979,270.319 444.5494,298.043 38.9357,5.947 78.5199,8.597 117.9981,7.658 z m 582.11922,-540.208 c -22.2033,-49.504 -44.7824,-98.93 -73.6424,-144.982 -142.0378,23.275 -284.3881,44.776 -426.85672,65.312 -5.9646,21.44 -15.4954,41.685 -29.145,59.318 5.6976,3.382 10.3294,10.072 17.6925,9.36 85.9854,3.345 172.00932,5.032 258.05012,5.85 84.5884,2.74 169.2507,5.568 253.9015,5.142 z m -732.16972,-28.117 c 12.7639,0.436 25.6091,-0.28 38.2926,-1.278 -28.0005,-37.011 -31.5279,-88.291 -10.3531,-129.449 -25.1519,-21.816 -36.4669,-54.364 -45.0649,-85.52 -21.8188,9.769 -44.4779,19.419 -61.7291,36.447 -28.1588,27.315 -41.5341,70.383 -29.8188,108.319 10.0501,32.456 38.4173,57.336 70.8771,65.984 12.3604,3.488 25.0323,5.059 37.7962,5.497 z m 1094.95742,-24.713 c 6.7238,-0.05 13.4573,-0.525 20.1744,-1.418 -7.3132,-19.824 -16.5747,-39.299 -31.2369,-54.887 -8.1675,17.101 -13.9703,36.165 -9.0768,55.027 6.6904,0.918 13.4152,1.324 20.1393,1.278 z m -96.9373,-20.034 c 8.7546,-32.028 16.8595,-64.317 21.5928,-97.255 -29.449,6.923 -58.0933,16.76 -87.2221,24.713 10.5339,32.239 36.1271,57.116 65.6293,72.542 z m -776.52542,-70.593 c 115.436,-25.161 231.32352,-48.502 346.76122,-73.537 -22.4114,-32.136 -41.9667,-71.045 -34.6053,-111.402 4.6229,-25.054 25.7873,-42.133 46.9086,-53.894 32.1911,-18.221 65.9741,-33.199 99.3481,-49.107 -4.9985,-7.314 -9.9116,-14.617 -14.7496,-22.089 -166.0615,0.586 -332.07992,3.253 -498.08842,5.035 14.1356,27.668 15.1999,58.783 9.5023,88.712 10.9096,30.588 36.5937,56.55 36.2718,90.625 -2.0961,31.818 -29.4785,51.912 -55.2761,65.452 28.5379,10.588 52.5855,31.556 63.9274,60.205 z m 999.86372,-42.511 c 23.5413,-13.879 16.6616,-46.35 12.6935,-68.751 -7.5267,-23.009 -14.991,-54.27 -40.8455,-62.439 -10.4807,10.055 0.6537,25.36 1.2054,37.443 9.1283,31.069 7.3197,66.701 26.9466,93.747 z m -16.5224,-5.603 c -3.2383,-38.791 -10.2766,-77.976 -26.1312,-113.707 -21.7796,10.195 -35.4207,30.697 -45.0295,51.871 20.3562,23.97 45.0927,44.273 71.1607,61.836 z m -282.2311,-71.729 c 24.5733,-5.695 49.1395,-11.574 73.8552,-16.415 -8.8614,-18.594 -18.3146,-37.121 -32.3361,-52.37 -19.3953,19.02 -32.5331,43.375 -41.5191,68.785 z m 165.7574,-34.782 c 16.8685,-11.441 33.9941,-23.638 45.8804,-40.56 9.4485,-12.528 7.6436,-33.729 -7.5166,-41.024 -26.0683,-16.227 -57.988,-11.551 -86.9032,-8.332 17.6338,29.184 34.18,59.026 48.5394,89.916 z"
         sodipodi:nodetypes="cccccccccccccccccccccccccccccccccccccccccccccccccccccccccccccccccccccccccccccccccccccccccccccccccccccccccccccccccccccccccccccccccccccccccccccccccccccccccccccccccccccccccccccccccccccccccccccccccccccccccccccccccccccccccccccccccccccccccccccccccccccccccccccccccccccccccccccccccccccccccccccccccccccccccccccccccccccccccccccccccccccc" />
    </g>
  </g>
</svg>
