<?xml version="1.0" encoding="UTF-8" standalone="no"?>
<!-- Uploaded to: SVG Repo, www.svgrepo.com, Generator: SVG Repo Mixer Tools -->

<svg
   fill="#000000"
   version="1.1"
   id="Capa_1"
   viewBox="0 0 377.021 377.021"
   xml:space="preserve"
   sodipodi:docname="DataOverlay_icn_battery.svg"
   inkscape:version="1.4.2 (ebf0e940d0, 2025-05-08)"
   xmlns:inkscape="http://www.inkscape.org/namespaces/inkscape"
   xmlns:sodipodi="http://sodipodi.sourceforge.net/DTD/sodipodi-0.dtd"
   xmlns="http://www.w3.org/2000/svg"
   xmlns:svg="http://www.w3.org/2000/svg"><defs
   id="defs2" /><sodipodi:namedview
   id="namedview2"
   pagecolor="#0000ff"
   bordercolor="#000000"
   borderopacity="0.25"
   inkscape:showpageshadow="2"
   inkscape:pageopacity="0.0"
   inkscape:pagecheckerboard="0"
   inkscape:deskcolor="#d1d1d1"
   showgrid="false"
   inkscape:zoom="2.0608932"
   inkscape:cx="188.26788"
   inkscape:cy="188.5105"
   inkscape:window-width="1920"
   inkscape:window-height="1003"
   inkscape:window-x="0"
   inkscape:window-y="0"
   inkscape:window-maximized="1"
   inkscape:current-layer="g2" />
<g
   id="g2">
	<path
   d="M279.522,36.163h-22.086V20c0-11.028-8.972-20-20-20h-97.85c-11.028,0-20,8.972-20,20v16.163H97.5   c-16.542,0-30,13.458-30,30v280.858c0,16.542,13.458,30,30,30h182.022c16.542,0,30-13.458,30-30V66.163   C309.522,49.621,296.064,36.163,279.522,36.163z M97.5,347.021V66.163h182.022l0.003,280.858H97.5z"
   id="path1"
   style="fill:#ffffff" />
	<rect
   x="122.586"
   y="266.5"
   width="131.85"
   height="59.663"
   id="rect1"
   style="fill:#ffffff" />
	<rect
   x="122.586"
   y="176.63"
   width="131.85"
   height="59.663"
   id="rect2"
   style="fill:#ffffff" />
</g>
</svg>
