<?xml version="1.0" encoding="UTF-8" standalone="no"?>
<!-- Uploaded to: SVG Repo, www.svgrepo.com, Generator: SVG Repo Mixer Tools -->

<svg
   width="512"
   height="512"
   viewBox="0 0 15.36 15.36"
   fill="none"
   version="1.1"
   id="svg3"
   sodipodi:docname="DataOverlay_icn_home.svg"
   inkscape:version="1.2.2 (b0a8486541, 2022-12-01)"
   xmlns:inkscape="http://www.inkscape.org/namespaces/inkscape"
   xmlns:sodipodi="http://sodipodi.sourceforge.net/DTD/sodipodi-0.dtd"
   xmlns="http://www.w3.org/2000/svg"
   xmlns:svg="http://www.w3.org/2000/svg">
  <defs
     id="defs3" />
  <sodipodi:namedview
     id="namedview3"
     pagecolor="#5c5c5c"
     bordercolor="#000000"
     borderopacity="0.25"
     inkscape:showpageshadow="2"
     inkscape:pageopacity="0"
     inkscape:pagecheckerboard="true"
     inkscape:deskcolor="#d1d1d1"
     inkscape:zoom="0.97125"
     inkscape:cx="377.34878"
     inkscape:cy="407.20721"
     inkscape:window-width="1920"
     inkscape:window-height="1003"
     inkscape:window-x="0"
     inkscape:window-y="40"
     inkscape:window-maximized="1"
     inkscape:current-layer="svg3"
     showgrid="false" />
  <path
     d="M 12.451223,5.3858845 V 10.94589 c 0,1.310493 0,1.965741 -0.407132,2.372872 -0.40713,0.40713 -1.062378,0.40713 -2.372871,0.40713 H 8.9762198 6.1962169 5.5012162 c -1.3105072,0 -1.9657609,0 -2.3728783,-0.40713 C 2.7212134,12.911631 2.7212134,12.256383 2.7212134,10.94589 V 5.3858845"
     stroke="#323232"
     stroke-width="2"
     stroke-linejoin="round"
     id="path1"
     style="stroke:#ffffff;stroke-width:1.11;stroke-dasharray:none;stroke-opacity:1" />
  <path
     d="M 1.331212,6.7758858 4.4587152,3.995883 6.662771,2.0367386 c 0.526602,-0.4681317 1.3202928,-0.4681317 1.8468948,0 l 0.8109641,0.7208515 1.3930911,1.2382929 3.127504,2.7800028"
     stroke="#323232"
     stroke-width="2"
     stroke-linecap="round"
     stroke-linejoin="round"
     id="path2"
     style="stroke:#ffffff;stroke-width:1.11;stroke-dasharray:none;stroke-opacity:1"
     sodipodi:nodetypes="ccccccc" />
  <path
     d="M 6.1962169,13.725892 V 10.94589 c 0,-0.767698 0.6223037,-1.390001 1.3900014,-1.390001 v 0 c 0.7676978,0 1.3900015,0.622303 1.3900015,1.390001 v 2.780002"
     stroke="#323232"
     stroke-width="2"
     stroke-linecap="round"
     stroke-linejoin="round"
     id="path3"
     style="stroke:#ffffff;stroke-width:1.11;stroke-dasharray:none;stroke-opacity:1" />
</svg>
