<?xml version="1.0" encoding="UTF-8" standalone="no"?>
<!-- Uploaded to: SVG Repo, www.svgrepo.com, Generator: SVG Repo Mixer Tools -->

<svg
   width="512"
   height="512"
   viewBox="0 0 15.36 15.36"
   fill="none"
   version="1.1"
   id="svg1"
   sodipodi:docname="DataOverlay_icn_image.svg"
   inkscape:version="1.2.2 (b0a8486541, 2022-12-01)"
   xmlns:inkscape="http://www.inkscape.org/namespaces/inkscape"
   xmlns:sodipodi="http://sodipodi.sourceforge.net/DTD/sodipodi-0.dtd"
   xmlns="http://www.w3.org/2000/svg"
   xmlns:svg="http://www.w3.org/2000/svg">
  <defs
     id="defs1" />
  <sodipodi:namedview
     id="namedview1"
     pagecolor="#727272"
     bordercolor="#000000"
     borderopacity="0.25"
     inkscape:showpageshadow="2"
     inkscape:pageopacity="0"
     inkscape:pagecheckerboard="0"
     inkscape:deskcolor="#d1d1d1"
     showgrid="false"
     inkscape:zoom="0.97125"
     inkscape:cx="375.80438"
     inkscape:cy="401.0296"
     inkscape:window-width="1920"
     inkscape:window-height="1003"
     inkscape:window-x="0"
     inkscape:window-y="40"
     inkscape:window-maximized="1"
     inkscape:current-layer="svg1" />
  <path
     d="M 9.6080145,11.056947 8.1874153,9.6452812 C 7.5019474,8.9639848 7.1591666,8.6233798 6.7658884,8.4988634 6.4199632,8.3893678 6.0481323,8.393379 5.7046632,8.5103848 5.314107,8.6434348 4.9787881,8.9913805 4.3081659,9.6872702 L 0.9045484,13.056201 M 9.6080145,11.056947 9.898765,10.768059 c 0.686328,-0.682064 1.029453,-1.0230965 1.423232,-1.1476129 0.346269,-0.1094953 0.718351,-0.1051428 1.06207,0.012291 0.390728,0.1334763 0.726016,0.4823599 1.396497,1.1800429 l 0.712469,0.718592 m -4.8850185,-0.474425 3.4159615,3.429951 m 0,0 c -0.304376,0.03712 -0.698937,0.03712 -1.256143,0.03712 H 3.5922072 c -0.9539107,0 -1.430866,0 -1.795213,-0.186048 C 1.4765053,14.17437 1.2159312,13.91322 1.0526441,13.592072 0.97599081,13.441271 0.93093746,13.271267 0.90449991,13.056201 M 13.023928,14.486898 c 0.216569,-0.02637 0.387584,-0.07151 0.539076,-0.148924 0.320473,-0.163604 0.581063,-0.424754 0.744318,-0.745902 0.185658,-0.365099 0.185658,-0.843107 0.185658,-1.799038 V 11.531371 M 0.90449522,13.056201 C 0.86695076,12.750672 0.86695076,12.354166 0.86695076,11.793034 V 3.600067 c 0,-0.9559315 0,-1.4339057 0.18564164,-1.7990219 C 1.2159374,1.4798722 1.4765006,1.2187555 1.7969942,1.0551182 2.1613365,0.86907806 2.6382903,0.86907806 3.5922072,0.86907806 h 8.1756198 c 0.95391,0 1.430897,0 1.79523,0.18604014 0.320473,0.1636373 0.581063,0.424754 0.744319,0.7459269 0.185657,0.3651162 0.185657,0.8430904 0.185657,1.7990219 v 7.931304 M 11.938152,5.1361542 c 0,0.9427118 -0.762544,1.7068765 -1.703255,1.7068765 -0.9407072,0 -1.7032538,-0.7641647 -1.7032538,-1.7068765 0,-0.9426776 0.7625435,-1.706868 1.7032538,-1.706868 0.940708,0 1.703255,0.7641904 1.703255,1.706868 z"
     stroke="#000000"
     stroke-width="1.70505"
     stroke-linecap="round"
     stroke-linejoin="round"
     id="path1"
     style="stroke:#ffffff;stroke-opacity:1;stroke-width:1.11;stroke-dasharray:none" />
</svg>
