<?xml version="1.0" encoding="UTF-8" standalone="no"?>
<!-- Uploaded to: SVG Repo, www.svgrepo.com, Generator: SVG Repo Mixer Tools -->

<svg
   height="512"
   width="512"
   version="1.1"
   id="Capa_1"
   viewBox="0 0 13.2448 13.2448"
   xml:space="preserve"
   sodipodi:docname="finish-line-flag-svgrepo-com.svg"
   inkscape:version="1.2.2 (b0a8486541, 2022-12-01)"
   xmlns:inkscape="http://www.inkscape.org/namespaces/inkscape"
   xmlns:sodipodi="http://sodipodi.sourceforge.net/DTD/sodipodi-0.dtd"
   xmlns="http://www.w3.org/2000/svg"
   xmlns:svg="http://www.w3.org/2000/svg"><defs
   id="defs1952" /><sodipodi:namedview
   id="namedview1950"
   pagecolor="#727272"
   bordercolor="#000000"
   borderopacity="0.25"
   inkscape:showpageshadow="2"
   inkscape:pageopacity="0"
   inkscape:pagecheckerboard="true"
   inkscape:deskcolor="#d1d1d1"
   showgrid="false"
   inkscape:zoom="1.0425"
   inkscape:cx="388.48921"
   inkscape:cy="323.74101"
   inkscape:window-width="1920"
   inkscape:window-height="1003"
   inkscape:window-x="0"
   inkscape:window-y="40"
   inkscape:window-maximized="1"
   inkscape:current-layer="Capa_1" />
<g
   id="g1947"
   transform="matrix(0.8004152,0,0,0.8004152,-1.6599672,0.96575852)">
	<path
   id="path1945"
   style="fill:#ffffff;fill-opacity:1"
   d="M 14.357386,3.9121263e-4 C 14.307593,0.00144586 14.260051,0.0357132 14.21902,0.12000999 c -0.203,0.41599959 -0.664001,1.55402231 -1.809999,2.55902131 0,0 -0.110026,0.1259654 -0.319026,0.2559652 C 11.601996,3.2369962 10.776,3.455018 9.6160009,2.7790187 9.559001,2.7460187 8.2030156,1.9830271 6.7190171,2.9000262 5.9010179,3.4040257 5.2110221,4.3269803 4.6690227,5.641979 l -0.006,0.013003 L 4.4140043,5.2509929 C 4.5370041,5.119993 4.5679946,4.9250159 4.4699947,4.766016 4.3519948,4.5750162 4.1020039,4.5160252 3.9140041,4.6340251 L 3.2200258,5.0620015 C 3.030026,5.1800014 2.9709818,5.4280023 3.0889817,5.6190021 3.1929816,5.7870019 3.3999886,5.8449799 3.5769884,5.7749799 l 5.1705612,8.3589221 h 1.16147 l -1.4460301,-2.3379 0.086984,-0.407019 c 0.003,-0.019 0.3760065,-1.6769885 1.6840055,-2.4859877 0.705999,-0.4369996 1.562012,-0.5530189 2.520011,-0.3500191 0.061,0.022 1.538022,0.5500433 2.964021,-0.3309558 0.658999,-0.4069996 1.545012,-1.365041 1.805012,-2.7950396 L 17.667008,5.1150251 14.782017,0.50297946 c 0,0 -0.229286,-0.50672573 -0.424631,-0.50258824737 z M 14.360984,0.4849893 14.770971,1.1470272 14.25803,1.5469768 14.049029,1.2090143 c 0.152,-0.25299973 0.227956,-0.55702517 0.311955,-0.724025 z m -0.102007,1.0650174 0.858036,1.3899766 0.463957,-0.4959603 0.871039,1.3939533 -0.526007,0.4090394 0.698018,1.1259946 0.501957,-0.4560032 0.02102,0.034023 -0.11299,1.0849645 -0.409987,-0.6629848 -1.232042,0.9289866 0.717019,1.1590082 c -0.179,0.1789998 -0.371001,0.33399 -0.576001,0.4609899 -0.322,0.1989998 -0.64899,0.3160127 -0.96099,0.3810127 L 13.996005,7.3730111 15.391978,6.300987 14.684997,5.1590221 15.926002,4.2470157 15.11897,2.9389733 13.876008,3.8519897 13.063989,2.5370037 C 13.220988,2.3670039 13.369002,2.1940032 13.502002,2.0180034 Z M 9.0920139,2.9370165 c 0.2049998,0.068 0.3299792,0.1380143 0.3459791,0.1470143 0.049,0.028 0.095985,0.051967 0.1439844,0.078967 l 0.5180536,0.833986 0.94199,-0.4239997 c 0.207,0.002 0.394997,-0.021987 0.562997,-0.061987 l 0.838973,1.3550062 1.431007,-1.0119939 0.808989,1.3059594 -1.432964,1.010037 0.706982,1.1419648 -1.475004,0.5380005 -0.668981,-1.0809877 1.434983,-0.5979677 -0.807032,-1.3050124 -1.444957,0.5830074 0.815996,1.3199727 -1.631992,1.1759883 0.275976,0.4460297 c -0.139,0.063 -0.275967,0.1300116 -0.407967,0.2100115 -0.3279994,0.204 -0.5980224,0.4539656 -0.8250222,0.7179654 L 8.8729758,8.7540241 7.4920259,9.6080201 6.6750201,8.3079944 8.0660067,7.4469917 7.1399869,5.9519779 5.7380169,6.8189773 5.0309721,5.6929827 c 0.05,-0.1179999 0.101011,-0.2279726 0.153011,-0.3389725 L 6.3309978,4.6460185 5.9699953,4.0599812 C 6.258995,3.6969815 6.5689689,3.4069882 6.9039686,3.1999884 c 0.086,-0.053 0.1710085,-0.099998 0.2540084,-0.1389976 L 7.6389771,3.8360195 Z M 8.8729758,8.7540241 10.181018,7.9459819 9.3739859,6.6400226 8.0660067,7.4480017 Z M 10.997014,5.4490109 10.099021,3.9959741 8.4489761,5.1419788 7.6399871,3.8360195 6.3320078,4.6450085 7.1409968,5.9519779 8.4470193,5.1439988 9.3720291,6.6400226 Z m 1.514014,2.4479873 0.179965,0.2909987 c -0.119,-0.024 -0.239016,-0.040024 -0.356016,-0.053024 z M 8.4419694,10.600004 c -0.049,0.117 -0.091974,0.230002 -0.1239743,0.323002 L 8.2070243,10.746008 Z" />
</g>
</svg>
