<?xml version="1.0" encoding="UTF-8" standalone="no"?>
<!-- Created with Inkscape (http://www.inkscape.org/) -->

<svg
   version="1.1"
   id="svg2"
   width="512"
   height="512"
   viewBox="0 0 512 512"
   sodipodi:docname="DataOverlay_icn_position.svg"
   inkscape:version="1.2.2 (b0a8486541, 2022-12-01)"
   xmlns:inkscape="http://www.inkscape.org/namespaces/inkscape"
   xmlns:sodipodi="http://sodipodi.sourceforge.net/DTD/sodipodi-0.dtd"
   xmlns="http://www.w3.org/2000/svg"
   xmlns:svg="http://www.w3.org/2000/svg">
  <defs
     id="defs6" />
  <sodipodi:namedview
     id="namedview4"
     pagecolor="#727272"
     bordercolor="#000000"
     borderopacity="0.25"
     inkscape:showpageshadow="2"
     inkscape:pageopacity="0"
     inkscape:pagecheckerboard="true"
     inkscape:deskcolor="#d1d1d1"
     showgrid="false"
     inkscape:zoom="1.2216797"
     inkscape:cx="124.41887"
     inkscape:cy="264.79937"
     inkscape:window-width="1920"
     inkscape:window-height="1003"
     inkscape:window-x="0"
     inkscape:window-y="40"
     inkscape:window-maximized="1"
     inkscape:current-layer="g8" />
  <g
     inkscape:groupmode="layer"
     inkscape:label="Image"
     id="g8">
    <g
       id="g30"
       style="fill:#ffffff"
       transform="matrix(8.4765695,0,0,8.3333331,80.681218,20.815162)">
	<path
   d="m 34.114088,8.8845054 c -3.576938,-4.040003 -8.34619,-6.263974 -13.432026,-6.263974 -5.085836,0 -9.855088,2.223971 -13.4304506,6.263974 -7.26413042,8.2075846 -7.26413042,21.5592836 0,29.7668686 L 20.682062,53.823831 34.112513,38.651374 c 7.265706,-8.207585 7.265706,-21.559284 0.0016,-29.7668686 z M 31.754663,36.562858 20.683637,49.07033 9.6110364,36.562858 c -6.246648,-7.054649 -6.246648,-18.535188 0,-25.589837 2.9689686,-3.3548556 6.9018686,-5.2023896 11.0710256,-5.2023896 4.169157,0 8.103632,1.847534 11.071026,5.2023896 6.246648,7.054649 6.246648,18.533613 0.0016,25.589837 z"
   id="path1"
   style="fill:#ffffff;stroke-width:1.57505" />

	
	
	
	
	
	
	
	
	
	
	
	
	
	
	
	
	
	
	
	
	
	
	
	
	
	
	
	
	<path
   d="m 20.682752,12.070831 c -5.211841,0 -9.4503,4.238459 -9.4503,9.4503 0,5.21184 4.238459,9.4503 9.4503,9.4503 5.21184,0 9.4503,-4.23846 9.4503,-9.4503 0,-5.211841 -4.23846,-9.4503 -9.4503,-9.4503 z m 0,15.7505 c -3.47456,0 -6.3002,-2.82564 -6.3002,-6.3002 0,-3.474561 2.82564,-6.3002 6.3002,-6.3002 3.47456,0 6.3002,2.825639 6.3002,6.3002 0,3.47456 -2.82564,6.3002 -6.3002,6.3002 z"
   id="path30"
   style="fill:#ffffff;stroke-width:1.57505" />

</g>
  </g>
</svg>
