<?xml version="1.0" encoding="UTF-8" standalone="no"?>
<!-- Uploaded to: SVG Repo, www.svgrepo.com, Generator: SVG Repo Mixer Tools -->

<svg
   fill="#000000"
   width="512"
   height="512"
   viewBox="-48 0 327.68 327.68"
   version="1.1"
   id="svg5496"
   sodipodi:docname="running.svg"
   inkscape:version="1.2.2 (b0a8486541, 2022-12-01)"
   xmlns:inkscape="http://www.inkscape.org/namespaces/inkscape"
   xmlns:sodipodi="http://sodipodi.sourceforge.net/DTD/sodipodi-0.dtd"
   xmlns="http://www.w3.org/2000/svg"
   xmlns:svg="http://www.w3.org/2000/svg">
  <defs
     id="defs5500" />
  <sodipodi:namedview
     id="namedview5498"
     pagecolor="#727272"
     bordercolor="#000000"
     borderopacity="0.25"
     inkscape:showpageshadow="2"
     inkscape:pageopacity="0"
     inkscape:pagecheckerboard="true"
     inkscape:deskcolor="#d1d1d1"
     showgrid="false"
     inkscape:zoom="1.0425"
     inkscape:cx="388.48921"
     inkscape:cy="323.74101"
     inkscape:window-width="1920"
     inkscape:window-height="1003"
     inkscape:window-x="0"
     inkscape:window-y="40"
     inkscape:window-maximized="1"
     inkscape:current-layer="svg5496" />
  <path
     d="m 153.23134,70.367475 c 15.4882,0 28.04351,-12.555313 28.04351,-28.04351 0,-15.488197 -12.55531,-28.04351 -28.04351,-28.04351 -15.48819,0 -28.0435,12.555313 -28.0435,28.04351 0,15.488197 12.55531,28.04351 28.0435,28.04351 z M 60.740347,199.75906 52.093598,219.92701 h -39.0798 c -10.3235168,0 -18.695673,8.37216 -18.695673,18.69568 0,10.32351 8.3721562,18.69567 18.695673,18.69567 H 58.26317 c 11.246616,0 21.371492,-6.68371 25.770817,-16.99554 l 5.135469,-11.9886 -6.23384,-3.68071 C 72.816583,218.67674 65.373369,209.83135 60.740347,199.75906 Z M 218.66621,145.14432 H 192.94212 L 177.71683,114.03356 C 170.41384,99.10623 157.00553,88.192631 141.62251,84.272382 L 100.09474,71.921553 C 83.560753,67.948723 66.343206,71.600221 52.864794,81.935423 L 29.688002,99.702155 c -8.196884,6.280575 -9.750962,18.012115 -3.458699,26.208995 6.292262,8.19688 18.017955,9.73343 26.208996,3.45869 l 23.188477,-17.76673 c 4.48112,-3.44116 10.189147,-4.67391 14.763739,-3.58722 l 8.58833,2.55312 -21.885626,51.05672 c -7.373106,17.22338 -0.765355,37.39719 15.365506,46.92029 l 49.648685,29.31132 -16.04905,51.25535 c -3.08478,9.85028 2.40122,20.33739 12.2515,23.42217 1.86372,0.58425 3.74497,0.86468 5.59702,0.86468 7.9515,0 15.32461,-5.12379 17.83099,-13.11618 l 18.48536,-59.04327 c 3.45285,-12.13466 -1.68846,-25.16904 -12.64296,-31.7768 l -35.77885,-21.11443 18.29256,-45.7343 11.84254,24.20506 c 4.67392,9.54648 14.55926,15.71021 25.18657,15.71021 h 31.54311 c 10.32352,0 18.69567,-8.37216 18.69567,-18.69568 0,-10.32351 -8.37215,-18.68983 -18.69566,-18.68983 z"
     id="path5494"
     style="stroke-width:0.58424;fill:#ffffff;fill-opacity:1" />
</svg>
