<?xml version="1.0" encoding="UTF-8" standalone="no"?>
<!-- Uploaded to: SVG Repo, www.svgrepo.com, Generator: SVG Repo Mixer Tools -->

<svg
   fill="#000000"
   height="512"
   width="512"
   version="1.1"
   id="Capa_1"
   viewBox="0 0 38.4 38.4"
   xml:space="preserve"
   sodipodi:docname="DataOverlay_icn_track.svg"
   inkscape:version="1.2.2 (b0a8486541, 2022-12-01)"
   xmlns:inkscape="http://www.inkscape.org/namespaces/inkscape"
   xmlns:sodipodi="http://sodipodi.sourceforge.net/DTD/sodipodi-0.dtd"
   xmlns="http://www.w3.org/2000/svg"
   xmlns:svg="http://www.w3.org/2000/svg"><defs
   id="defs30" /><sodipodi:namedview
   id="namedview30"
   pagecolor="#727272"
   bordercolor="#000000"
   borderopacity="0.25"
   inkscape:showpageshadow="2"
   inkscape:pageopacity="0"
   inkscape:pagecheckerboard="true"
   inkscape:deskcolor="#d1d1d1"
   inkscape:zoom="0.97125"
   inkscape:cx="355.21236"
   inkscape:cy="401.0296"
   inkscape:window-width="1920"
   inkscape:window-height="1003"
   inkscape:window-x="0"
   inkscape:window-y="40"
   inkscape:window-maximized="1"
   inkscape:current-layer="Capa_1"
   showgrid="false" />
<g
   id="g30"
   style="fill:#ffffff"
   transform="matrix(0.63574273,0,0,0.625,0.12767839,0.45)">
	<path
   d="M 21.021,28.977 C 18.75,26.412 15.722,25 12.493,25 c -3.229,0 -6.257,1.412 -8.527,3.977 -4.612,5.211 -4.612,13.688 0,18.899 l 8.527,9.633 8.527,-9.633 c 4.613,-5.211 4.613,-13.688 0.001,-18.899 z M 19.523,46.55 12.494,54.491 5.464,46.55 C 1.498,42.071 1.498,34.782 5.464,30.303 7.349,28.173 9.846,27 12.493,27 c 2.647,0 5.145,1.173 7.029,3.303 3.966,4.479 3.966,11.767 0.001,16.247 z"
   id="path1"
   style="fill:#ffffff" />
	<path
   d="m 48.747,24.507 6.464,-7.286 c 3.478,-3.92 3.478,-10.296 0,-14.216 C 53.491,1.067 51.195,0 48.746,0 c -2.448,0 -4.744,1.067 -6.464,3.005 -3.478,3.92 -3.478,10.296 0,14.216 z M 43.778,4.333 C 45.113,2.828 46.877,2 48.746,2 c 1.87,0 3.634,0.828 4.969,2.333 2.828,3.187 2.828,8.373 0,11.56 l -4.968,5.601 -4.969,-5.601 c -2.828,-3.187 -2.828,-8.373 0,-11.56 z"
   id="path2"
   style="fill:#ffffff" />
	<path
   d="m 52.604,54.517 c -0.539,-0.121 -1.074,0.217 -1.195,0.756 -0.115,0.51 -0.338,0.979 -0.663,1.392 -0.341,0.434 -0.267,1.063 0.168,1.404 0.184,0.144 0.401,0.214 0.617,0.214 0.297,0 0.59,-0.131 0.787,-0.382 0.504,-0.64 0.864,-1.396 1.042,-2.188 0.121,-0.54 -0.217,-1.075 -0.756,-1.196 z"
   id="path3"
   style="fill:#ffffff" />
	<path
   d="m 31.995,31 c -0.433,-0.001 -0.854,-0.078 -1.252,-0.23 -0.512,-0.195 -1.093,0.062 -1.291,0.578 -0.196,0.516 0.063,1.094 0.578,1.291 0.626,0.238 1.285,0.36 1.963,0.361 h 0.357 c 0.553,0 1,-0.447 1,-1 0,-0.553 -0.447,-1 -1,-1 z"
   id="path4"
   style="fill:#ffffff" />
	<path
   d="m 29.621,24.676 c 0.181,0 0.363,-0.049 0.528,-0.151 0.443,-0.276 0.933,-0.445 1.454,-0.503 0.549,-0.061 0.945,-0.555 0.885,-1.104 -0.06,-0.549 -0.551,-0.941 -1.104,-0.885 -0.822,0.091 -1.594,0.357 -2.294,0.794 -0.469,0.292 -0.611,0.909 -0.319,1.378 0.19,0.304 0.516,0.471 0.85,0.471 z"
   id="path5"
   style="fill:#ffffff" />
	<path
   d="m 18.064,58 h -2 c -0.553,0 -1,0.447 -1,1 0,0.553 0.447,1 1,1 h 2 c 0.553,0 1,-0.447 1,-1 0,-0.553 -0.448,-1 -1,-1 z"
   id="path6"
   style="fill:#ffffff" />
	<path
   d="m 35.993,40 c -0.086,0 -0.171,0.002 -0.256,0.006 -0.552,0.022 -0.98,0.488 -0.958,1.04 0.021,0.538 0.465,0.959 0.998,0.959 0.014,0 0.028,0 0.042,-0.001 L 37.778,42 c 0.553,0 1,-0.447 1,-1 0,-0.553 -0.447,-1 -1,-1 z"
   id="path7"
   style="fill:#ffffff" />
	<path
   d="m 35.493,24 h 2 c 0.553,0 1,-0.447 1,-1 0,-0.553 -0.447,-1 -1,-1 h -2 c -0.553,0 -1,0.447 -1,1 0,0.553 0.447,1 1,1 z"
   id="path8"
   style="fill:#ffffff" />
	<path
   d="m 47.778,40 c -0.553,0 -1,0.447 -1,1 0,0.553 0.447,1 1,1 h 2 c 0.553,0 1,-0.447 1,-1 0,-0.553 -0.447,-1 -1,-1 z"
   id="path9"
   style="fill:#ffffff" />
	<path
   d="m 51.351,32 c 0,-0.553 -0.447,-1 -1,-1 h -2 c -0.553,0 -1,0.447 -1,1 0,0.553 0.447,1 1,1 h 2 c 0.552,0 1,-0.447 1,-1 z"
   id="path10"
   style="fill:#ffffff" />
	<path
   d="m 41.778,42 h 2 c 0.553,0 1,-0.447 1,-1 0,-0.553 -0.447,-1 -1,-1 h -2 c -0.553,0 -1,0.447 -1,1 0,0.553 0.448,1 1,1 z"
   id="path11"
   style="fill:#ffffff" />
	<path
   d="m 43.493,24 c 0.553,0 1,-0.447 1,-1 0,-0.553 -0.447,-1 -1,-1 h -2 c -0.553,0 -1,0.447 -1,1 0,0.553 0.447,1 1,1 z"
   id="path12"
   style="fill:#ffffff" />
	<path
   d="m 36.351,31 c -0.553,0 -1,0.447 -1,1 0,0.553 0.447,1 1,1 h 2 c 0.553,0 1,-0.447 1,-1 0,-0.553 -0.447,-1 -1,-1 z"
   id="path13"
   style="fill:#ffffff" />
	<path
   d="m 45.351,32 c 0,-0.553 -0.447,-1 -1,-1 h -2 c -0.553,0 -1,0.447 -1,1 0,0.553 0.447,1 1,1 h 2 c 0.552,0 1,-0.447 1,-1 z"
   id="path14"
   style="fill:#ffffff" />
	<path
   d="m 59.426,35.632 c -0.088,-0.546 -0.603,-0.919 -1.146,-0.829 -0.546,0.087 -0.917,0.601 -0.829,1.146 0.028,0.178 0.044,0.359 0.042,0.552 0,0.336 -0.048,0.668 -0.142,0.988 -0.155,0.53 0.148,1.086 0.679,1.241 0.094,0.027 0.188,0.04 0.281,0.04 0.433,0 0.832,-0.282 0.96,-0.719 0.147,-0.503 0.222,-1.024 0.222,-1.543 0.002,-0.288 -0.02,-0.583 -0.067,-0.876 z"
   id="path15"
   style="fill:#ffffff" />
	<path
   d="m 42.064,58 h -2 c -0.553,0 -1,0.447 -1,1 0,0.553 0.447,1 1,1 h 2 c 0.553,0 1,-0.447 1,-1 0,-0.553 -0.448,-1 -1,-1 z"
   id="path16"
   style="fill:#ffffff" />
	<path
   d="m 36.064,58 h -2 c -0.553,0 -1,0.447 -1,1 0,0.553 0.447,1 1,1 h 2 c 0.553,0 1,-0.447 1,-1 0,-0.553 -0.448,-1 -1,-1 z"
   id="path17"
   style="fill:#ffffff" />
	<path
   d="m 47.065,50 c 0,-0.553 -0.447,-1 -1,-1 h -2 c -0.553,0 -1,0.447 -1,1 0,0.553 0.447,1 1,1 h 2 c 0.552,0 1,-0.447 1,-1 z"
   id="path18"
   style="fill:#ffffff" />
	<path
   d="m 41.065,50 c 0,-0.553 -0.447,-1 -1,-1 h -2 c -0.553,0 -1,0.447 -1,1 0,0.553 0.447,1 1,1 h 2 c 0.552,0 1,-0.447 1,-1 z"
   id="path19"
   style="fill:#ffffff" />
	<path
   d="m 47.993,58 h -1.93 c -0.553,0 -1,0.447 -1,1 0,0.553 0.447,1 1,1 l 1.971,-10e-4 0.029,-1 v 1 c 0.553,0 0.965,-0.447 0.965,-1 C 49.028,58.447 48.546,58 47.993,58 Z"
   id="path20"
   style="fill:#ffffff" />
	<path
   d="m 51.531,52.719 c 0.216,0 0.435,-0.07 0.617,-0.214 0.435,-0.342 0.509,-0.971 0.168,-1.404 -0.503,-0.639 -1.152,-1.167 -1.879,-1.528 -0.497,-0.247 -1.095,-0.044 -1.341,0.45 -0.246,0.495 -0.044,1.095 0.45,1.341 0.463,0.229 0.877,0.566 1.197,0.974 0.198,0.25 0.491,0.381 0.788,0.381 z"
   id="path21"
   style="fill:#ffffff" />
	<path
   d="M 55.345,39.729 C 54.916,39.909 54.462,40 53.993,40 h -0.215 c -0.553,0 -1,0.447 -1,1 0,0.553 0.447,1 1,1 h 0.215 c 0.736,0 1.451,-0.144 2.125,-0.427 0.51,-0.214 0.749,-0.8 0.535,-1.309 -0.213,-0.509 -0.803,-0.749 -1.308,-0.535 z"
   id="path22"
   style="fill:#ffffff" />
	<path
   d="m 28.029,29.855 c 0.524,-0.173 0.81,-0.738 0.638,-1.263 -0.115,-0.351 -0.174,-0.718 -0.174,-1.088 0.001,-0.151 0.01,-0.302 0.028,-0.449 0.069,-0.548 -0.319,-1.049 -0.867,-1.117 -0.565,-0.063 -1.049,0.321 -1.117,0.867 -0.028,0.226 -0.043,0.456 -0.044,0.694 0,0.588 0.092,1.166 0.273,1.718 0.139,0.421 0.53,0.688 0.95,0.688 0.104,0 0.21,-0.015 0.313,-0.05 z"
   id="path23"
   style="fill:#ffffff" />
	<path
   d="m 24.064,58 h -2 c -0.553,0 -1,0.447 -1,1 0,0.553 0.447,1 1,1 h 2 c 0.553,0 1,-0.447 1,-1 0,-0.553 -0.448,-1 -1,-1 z"
   id="path24"
   style="fill:#ffffff" />
	<path
   d="m 34.122,50.594 c 0.38,0 0.742,-0.217 0.91,-0.584 0.229,-0.503 0.009,-1.096 -0.493,-1.325 -0.469,-0.215 -0.894,-0.538 -1.228,-0.936 -0.356,-0.423 -0.986,-0.478 -1.409,-0.122 -0.423,0.355 -0.478,0.986 -0.122,1.409 0.524,0.623 1.19,1.131 1.927,1.467 0.135,0.061 0.276,0.091 0.415,0.091 z"
   id="path25"
   style="fill:#ffffff" />
	<path
   d="m 56.746,31.738 c -0.714,-0.414 -1.494,-0.657 -2.317,-0.722 -0.549,-0.04 -1.032,0.367 -1.075,0.919 -0.043,0.551 0.368,1.032 0.919,1.075 0.522,0.041 1.017,0.195 1.47,0.458 0.158,0.092 0.331,0.135 0.501,0.135 0.345,0 0.681,-0.179 0.866,-0.498 0.277,-0.477 0.114,-1.089 -0.364,-1.367 z"
   id="path26"
   style="fill:#ffffff" />
	<path
   d="m 30.064,58 h -2 c -0.553,0 -1,0.447 -1,1 0,0.553 0.447,1 1,1 h 2 c 0.553,0 1,-0.447 1,-1 0,-0.553 -0.448,-1 -1,-1 z"
   id="path27"
   style="fill:#ffffff" />
	<path
   d="m 32.555,44.839 c 0.099,-0.514 0.307,-0.989 0.619,-1.413 0.327,-0.444 0.232,-1.07 -0.213,-1.398 -0.445,-0.326 -1.07,-0.232 -1.398,0.213 -0.489,0.666 -0.817,1.413 -0.973,2.222 -0.104,0.542 0.251,1.066 0.794,1.171 0.063,0.012 0.127,0.018 0.189,0.018 0.47,-0.002 0.889,-0.335 0.982,-0.813 z"
   id="path28"
   style="fill:#ffffff" />
	<path
   d="m 48.993,15 c 3.032,0 5.5,-2.468 5.5,-5.5 0,-3.032 -2.468,-5.5 -5.5,-5.5 -3.032,0 -5.5,2.468 -5.5,5.5 0,3.032 2.468,5.5 5.5,5.5 z m 0,-9 c 1.93,0 3.5,1.57 3.5,3.5 0,1.93 -1.57,3.5 -3.5,3.5 -1.93,0 -3.5,-1.57 -3.5,-3.5 0,-1.93 1.571,-3.5 3.5,-3.5 z"
   id="path29"
   style="fill:#ffffff" />
	<path
   d="m 12.493,31 c -3.309,0 -6,2.691 -6,6 0,3.309 2.691,6 6,6 3.309,0 6,-2.691 6,-6 0,-3.309 -2.691,-6 -6,-6 z m 0,10 c -2.206,0 -4,-1.794 -4,-4 0,-2.206 1.794,-4 4,-4 2.206,0 4,1.794 4,4 0,2.206 -1.794,4 -4,4 z"
   id="path30"
   style="fill:#ffffff" />
</g>
</svg>
